<svg width="400" height="400" viewBox="0 0 400 400" fill="none" xmlns="http://www.w3.org/2000/svg">
<path d="M167.351 117.173V108.602H164.509V102.89H161.668V100.031H158.827V97.1721H155.986V94.313H153.145V91.454H150.303V88.5949H147.462V85.7359H141.78V82.8769H133.262V80.0178H119.062V148.569H121.903V151.428H119.062V165.712H121.903V168.571H119.062V171.43H121.903V174.289H119.062V182.86H121.903V185.719H119.062V188.578H121.903V191.437H119.062V194.296H121.903V197.155H119.062V205.726H121.903V208.585H119.062V211.445H121.903V214.304H119.062V217.163H121.903V220.022H124.744V217.163H127.586V220.022H124.744V222.881H127.586V225.74H130.427V222.881H133.268V220.022H130.427V217.163H133.268V220.022H136.109V217.163H138.95V220.022H136.109V222.881H138.95V225.74H141.792V222.881H144.633V220.022H141.792V217.163H144.633V220.022H147.474V217.163H150.315V220.022H147.474V222.881H150.315V225.74H153.156V222.881H155.998V220.022H153.156V217.163H155.998V220.022H158.839V217.163H161.68V220.022H158.839V222.881H161.68V225.74H164.521V222.881H167.362V220.022H164.521V217.163H167.362V220.022H170.204V120.05H167.362V117.191L167.351 117.173ZM161.674 185.731H158.833V182.872H161.674V185.731ZM161.674 208.58H158.833V205.72H161.674V208.58ZM124.756 200.008H127.597V202.867H124.756V200.008ZM124.756 177.16H127.597V180.019H124.756V177.16ZM124.756 160.023H127.597V162.882H124.756V160.023ZM124.756 137.169H127.597V140.028H124.756V137.169ZM161.674 140.028H158.833V137.169H161.674V140.028ZM155.992 197.155H153.15V194.296H155.992V197.155ZM136.115 200.008H138.956V202.867H136.115V200.008ZM136.115 194.296H138.956V197.155H136.115V194.296ZM130.433 171.448H133.274V174.307H130.433V171.448ZM130.433 165.736H133.274V168.595H130.433V165.736ZM155.992 168.589H153.15V165.73H155.992V168.589ZM150.315 185.731H147.474V182.872H150.315V185.731ZM150.315 197.155H147.474V194.296H150.315V197.155ZM141.792 197.155V194.296H144.633V197.155H141.792ZM136.115 177.16H138.956V180.019H136.115V177.16ZM150.315 162.876H147.474V160.017H150.315V162.876ZM136.115 160.023H138.956V162.882H136.115V160.023ZM150.315 140.028H147.474V137.169H150.315V140.028ZM144.633 168.589H141.792V165.73H144.633V168.589ZM141.792 148.593H144.633V151.452H141.792V148.593ZM136.115 137.169H138.956V140.028H136.115V137.169ZM141.792 174.301V171.442H144.633V174.301H141.792ZM141.792 182.872H144.633V185.731H141.792V182.872ZM144.633 188.584V191.443H141.792V188.584H144.633ZM147.474 180.013V177.154H150.315V180.013H147.474ZM155.992 151.452H153.15V148.593H155.992V151.452ZM130.433 148.593H133.274V151.452H130.433V148.593ZM136.115 182.872H138.956V185.731H136.115V182.872ZM147.474 200.008H150.315V202.867H147.474V200.008ZM153.15 191.443V188.584H155.992V191.443H153.15ZM155.992 185.731H153.15V182.872H155.992V185.731ZM153.15 174.301V171.442H155.992V174.301H153.15ZM130.433 182.872H133.274V185.731H130.433V182.872ZM133.274 188.584V191.443H130.433V188.584H133.274ZM130.433 194.296H133.274V197.155H130.433V194.296ZM130.433 205.72H133.274V208.58H130.433V205.72ZM136.115 205.72H138.956V208.58H136.115V205.72ZM141.792 205.72H144.633V208.58H141.792V205.72ZM147.474 205.72H150.315V208.58H147.474V205.72ZM153.15 205.72H155.992V208.58H153.15V205.72ZM158.833 202.867V200.008H161.674V202.867H158.833ZM161.674 197.155H158.833V194.296H161.674V197.155ZM158.833 180.013V177.154H161.674V180.013H158.833ZM158.833 162.876V160.017H161.674V162.876H158.833ZM124.756 182.872H127.597V185.731H124.756V182.872ZM124.756 194.296H127.597V197.155H124.756V194.296ZM124.756 205.72H127.597V208.58H124.756V205.72ZM124.756 214.292V211.433H127.597V214.292H124.756ZM130.433 214.292V211.433H133.274V214.292H130.433ZM136.115 214.292V211.433H138.956V214.292H136.115ZM141.792 214.292V211.433H144.633V214.292H141.792ZM147.474 214.292V211.433H150.315V214.292H147.474ZM153.15 214.292V211.433H155.992V214.292H153.15ZM158.833 214.292V211.433H161.674V214.292H158.833ZM167.351 214.292H164.509V211.433H167.351V214.292ZM167.351 208.58H164.509V205.72H167.351V208.58ZM167.351 197.155H164.509V194.296H167.351V197.155ZM167.351 191.443H164.509V188.584H167.351V191.443ZM167.351 185.731H164.509V182.872H167.351V185.731ZM167.351 174.301H164.509V171.442H167.351V174.301ZM167.351 168.589H164.509V165.73H167.351V168.589ZM167.351 151.452H164.509V148.593H167.351V151.452Z" fill="#135BEE"/>
<path d="M121.915 220.004H119.074V222.863H121.915V220.004Z" fill="#135BEE"/>
<path d="M133.274 228.575V231.428H136.115V228.575H138.95V225.716H136.115V222.863H133.274V225.716H130.433V228.575H133.274Z" fill="#135BEE"/>
<path d="M144.633 228.575V231.428H147.474V228.575H150.315V225.716H147.474V222.863H144.633V225.716H141.792V228.575H144.633Z" fill="#135BEE"/>
<path d="M155.992 228.575V231.428H158.833V228.575H161.674V225.716H158.833V222.863H155.992V225.716H153.151V228.575H155.992Z" fill="#135BEE"/>
<path d="M164.509 225.716V228.575H167.351V231.428H170.192V228.575V225.716V222.863H167.351V225.716H164.509Z" fill="#135BEE"/>
<path d="M124.756 228.575H127.591V225.716H124.756V222.863H121.915V225.716H119.074V228.575H121.915V231.428H124.756V228.575Z" fill="#135BEE"/>
<path d="M130.433 228.575H127.591V231.434H130.433V228.575Z" fill="#135BEE"/>
<path d="M141.792 228.575H138.95V231.434H141.792V228.575Z" fill="#135BEE"/>
<path d="M153.156 228.575H150.315V231.434H153.156V228.575Z" fill="#135BEE"/>
<path d="M164.515 228.575H161.674V231.434H164.515V228.575Z" fill="#135BEE"/>
<path d="M121.915 231.428H119.074V234.287H121.915V231.428Z" fill="#135BEE"/>
<path d="M127.597 231.428H124.756V234.287H127.597V231.428Z" fill="#135BEE"/>
<path d="M133.274 231.428H130.433V234.287H133.274V231.428Z" fill="#135BEE"/>
<path d="M138.956 231.428H136.115V234.287H138.956V231.428Z" fill="#135BEE"/>
<path d="M144.633 231.428H141.792V234.287H144.633V231.428Z" fill="#135BEE"/>
<path d="M150.315 231.428H147.474V234.287H150.315V231.428Z" fill="#135BEE"/>
<path d="M155.992 231.428H153.151V234.287H155.992V231.428Z" fill="#135BEE"/>
<path d="M161.674 231.428H158.833V234.287H161.674V231.428Z" fill="#135BEE"/>
<path d="M167.351 231.428H164.509V234.287H167.351V231.428Z" fill="#135BEE"/>
<path d="M124.756 234.287H121.915V237.146H124.756V234.287Z" fill="#135BEE"/>
<path d="M136.115 234.287H133.274V237.146H136.115V234.287Z" fill="#135BEE"/>
<path d="M147.474 234.287H144.633V237.146H147.474V234.287Z" fill="#135BEE"/>
<path d="M153.15 234.287H150.315V237.146H147.474V239.999H150.315V242.858H153.15V239.999H155.992V237.146H153.15V234.287Z" fill="#135BEE"/>
<path d="M158.833 234.287H155.992V237.146H158.833V234.287Z" fill="#135BEE"/>
<path d="M164.509 234.287H161.674V237.146H158.833V239.999H161.674V242.858H164.509V239.999H167.351V237.146H164.509V234.287Z" fill="#135BEE"/>
<path d="M170.192 234.287H167.351V237.146H170.192V234.287Z" fill="#135BEE"/>
<path d="M121.915 237.146H119.074V240.005H121.915V237.146Z" fill="#135BEE"/>
<path d="M136.115 237.146V239.999H138.95V242.858H141.792V239.999H144.633V237.146H141.792V234.287H138.95V237.146H136.115Z" fill="#135BEE"/>
<path d="M124.756 239.999H121.915V242.858H124.756V239.999Z" fill="#135BEE"/>
<path d="M127.591 242.858H130.433V239.999H133.274V237.146H130.433V234.287H127.591V237.146H124.756V239.999H127.591V242.858Z" fill="#135BEE"/>
<path d="M136.115 239.999H133.274V242.858H136.115V239.999Z" fill="#135BEE"/>
<path d="M147.474 239.999H144.633V242.858H147.474V239.999Z" fill="#135BEE"/>
<path d="M158.833 239.999H155.992V242.858H158.833V239.999Z" fill="#135BEE"/>
<path d="M170.192 239.999H167.351V242.858H170.192V239.999Z" fill="#135BEE"/>
<path d="M121.915 242.858H119.074V245.717H121.915V242.858Z" fill="#135BEE"/>
<path d="M127.597 242.858H124.756V245.717H127.597V242.858Z" fill="#135BEE"/>
<path d="M133.274 242.858H130.433V245.717H133.274V242.858Z" fill="#135BEE"/>
<path d="M138.956 242.858H136.115V245.717H138.956V242.858Z" fill="#135BEE"/>
<path d="M144.633 242.858H141.792V245.717H144.633V242.858Z" fill="#135BEE"/>
<path d="M150.315 242.858H147.474V245.717H150.315V242.858Z" fill="#135BEE"/>
<path d="M155.992 242.858H153.151V245.717H155.992V242.858Z" fill="#135BEE"/>
<path d="M161.674 242.858H158.833V245.717H161.674V242.858Z" fill="#135BEE"/>
<path d="M167.351 242.858H164.509V245.717H167.351V242.858Z" fill="#135BEE"/>
<path d="M124.756 245.711H121.915V248.57H124.756V245.711Z" fill="#135BEE"/>
<path d="M130.433 245.711H127.591V248.57H130.433V245.711Z" fill="#135BEE"/>
<path d="M136.115 245.711H133.274V248.57H136.115V245.711Z" fill="#135BEE"/>
<path d="M141.792 245.711H138.95V248.57H141.792V245.711Z" fill="#135BEE"/>
<path d="M147.474 245.711H144.633V248.57H147.474V245.711Z" fill="#135BEE"/>
<path d="M153.156 245.711H150.315V248.57H153.156V245.711Z" fill="#135BEE"/>
<path d="M158.833 245.711H155.992V248.57H158.833V245.711Z" fill="#135BEE"/>
<path d="M164.515 245.711H161.674V248.57H164.515V245.711Z" fill="#135BEE"/>
<path d="M170.192 245.711H167.351V248.57H170.192V245.711Z" fill="#135BEE"/>
<path d="M121.915 248.57H119.074V251.43H121.915V248.57Z" fill="#135BEE"/>
<path d="M127.597 248.57H124.756V251.43H127.597V248.57Z" fill="#135BEE"/>
<path d="M133.274 248.57H130.433V251.43H133.274V248.57Z" fill="#135BEE"/>
<path d="M138.956 248.57H136.115V251.43H138.956V248.57Z" fill="#135BEE"/>
<path d="M144.633 248.57H141.792V251.43H144.633V248.57Z" fill="#135BEE"/>
<path d="M150.315 248.57H147.474V251.43H150.315V248.57Z" fill="#135BEE"/>
<path d="M155.992 248.57H153.151V251.43H155.992V248.57Z" fill="#135BEE"/>
<path d="M161.674 248.57H158.833V251.43H161.674V248.57Z" fill="#135BEE"/>
<path d="M167.351 248.57H164.509V251.43H167.351V248.57Z" fill="#135BEE"/>
<path d="M124.756 251.424H121.915V254.283H124.756V251.424Z" fill="#135BEE"/>
<path d="M136.115 251.424H133.274V254.283H136.115V251.424Z" fill="#135BEE"/>
<path d="M147.474 251.424H144.633V254.283H147.474V251.424Z" fill="#135BEE"/>
<path d="M158.833 251.424H155.992V254.283H158.833V251.424Z" fill="#135BEE"/>
<path d="M170.192 251.424H167.351V254.283H170.192V251.424Z" fill="#135BEE"/>
<path d="M121.915 254.283H119.074V257.142H121.915V254.283Z" fill="#135BEE"/>
<path d="M127.597 254.283H124.756V257.142H127.597V254.283Z" fill="#135BEE"/>
<path d="M133.274 254.283H130.433V257.142H133.274V254.283Z" fill="#135BEE"/>
<path d="M138.956 254.283H136.115V257.142H138.956V254.283Z" fill="#135BEE"/>
<path d="M144.633 254.283H141.792V257.142H144.633V254.283Z" fill="#135BEE"/>
<path d="M150.315 254.283H147.474V257.142H150.315V254.283Z" fill="#135BEE"/>
<path d="M155.992 254.283H153.151V257.142H155.992V254.283Z" fill="#135BEE"/>
<path d="M161.674 254.283H158.833V257.142H161.674V254.283Z" fill="#135BEE"/>
<path d="M167.351 254.283H164.509V257.142H167.351V254.283Z" fill="#135BEE"/>
<path d="M124.756 257.136H121.915V259.995H124.756V257.136Z" fill="#135BEE"/>
<path d="M130.433 257.136H127.591V259.995H130.433V257.136Z" fill="#135BEE"/>
<path d="M141.792 257.136H138.95V259.995H141.792V257.136Z" fill="#135BEE"/>
<path d="M153.156 257.136H150.315V259.995H153.156V257.136Z" fill="#135BEE"/>
<path d="M158.833 257.136H155.992V259.995H158.833V257.136Z" fill="#135BEE"/>
<path d="M164.515 257.136H161.674V259.995H164.515V257.136Z" fill="#135BEE"/>
<path d="M121.915 259.995H119.074V262.854H121.915V259.995Z" fill="#135BEE"/>
<path d="M127.597 259.995H124.756V262.854H127.597V259.995Z" fill="#135BEE"/>
<path d="M133.274 259.995H130.433V262.854H133.274V259.995Z" fill="#135BEE"/>
<path d="M138.956 259.995H136.115V262.854H138.956V259.995Z" fill="#135BEE"/>
<path d="M144.633 259.995H141.792V262.854H144.633V259.995Z" fill="#135BEE"/>
<path d="M150.315 259.995H147.474V262.854H150.315V259.995Z" fill="#135BEE"/>
<path d="M155.992 259.995H153.151V262.854H155.992V259.995Z" fill="#135BEE"/>
<path d="M161.674 259.995H158.833V262.854H161.674V259.995Z" fill="#135BEE"/>
<path d="M167.351 259.995H164.509V262.854H167.351V259.995Z" fill="#135BEE"/>
<path d="M121.915 265.707H119.074V268.566H121.915V265.707Z" fill="#135BEE"/>
<path d="M127.597 265.707H124.756V268.566H127.597V265.707Z" fill="#135BEE"/>
<path d="M133.274 265.707H130.433V268.566H133.274V265.707Z" fill="#135BEE"/>
<path d="M138.956 265.707H136.115V268.566H138.956V265.707Z" fill="#135BEE"/>
<path d="M144.633 265.707H141.792V268.566H144.633V265.707Z" fill="#135BEE"/>
<path d="M150.315 265.707H147.474V268.566H150.315V265.707Z" fill="#135BEE"/>
<path d="M155.992 265.707H153.151V268.566H155.992V265.707Z" fill="#135BEE"/>
<path d="M161.674 265.707H158.833V268.566H161.674V265.707Z" fill="#135BEE"/>
<path d="M167.351 265.707H164.509V268.566H167.351V265.707Z" fill="#135BEE"/>
<path d="M124.756 268.566H121.915V271.425H124.756V268.566Z" fill="#135BEE"/>
<path d="M136.115 268.566H133.274V271.425H136.115V268.566Z" fill="#135BEE"/>
<path d="M147.474 268.566H144.633V271.425H147.474V268.566Z" fill="#135BEE"/>
<path d="M158.833 268.566H155.992V271.425H158.833V268.566Z" fill="#135BEE"/>
<path d="M170.192 268.566H167.351V271.425H170.192V268.566Z" fill="#135BEE"/>
<path d="M121.915 271.419H119.074V274.278H121.915V271.419Z" fill="#135BEE"/>
<path d="M127.597 271.419H124.756V274.278H127.597V271.419Z" fill="#135BEE"/>
<path d="M133.274 271.419H130.433V274.278H133.274V271.419Z" fill="#135BEE"/>
<path d="M138.956 271.419H136.115V274.278H138.956V271.419Z" fill="#135BEE"/>
<path d="M144.633 271.419H141.792V274.278H144.633V271.419Z" fill="#135BEE"/>
<path d="M150.315 271.419H147.474V274.278H150.315V271.419Z" fill="#135BEE"/>
<path d="M155.992 271.419H153.151V274.278H155.992V271.419Z" fill="#135BEE"/>
<path d="M161.674 271.419H158.833V274.278H161.674V271.419Z" fill="#135BEE"/>
<path d="M167.351 271.419H164.509V274.278H167.351V271.419Z" fill="#135BEE"/>
<path d="M127.597 277.131H124.756V279.99H127.597V277.131Z" fill="#135BEE"/>
<path d="M138.956 277.131H136.115V279.99H138.956V277.131Z" fill="#135BEE"/>
<path d="M150.315 277.131H147.474V279.99H150.315V277.131Z" fill="#135BEE"/>
<path d="M161.674 277.131H158.833V279.99H161.674V277.131Z" fill="#135BEE"/>
<path d="M121.915 282.843H119.074V285.702H121.915V282.843Z" fill="#135BEE"/>
<path d="M133.274 282.843H130.433V285.702H133.274V282.843Z" fill="#135BEE"/>
<path d="M144.633 282.843H141.792V285.702H144.633V282.843Z" fill="#135BEE"/>
<path d="M155.992 282.843H153.151V285.702H155.992V282.843Z" fill="#135BEE"/>
<path d="M167.351 282.843H164.509V285.702H167.351V282.843Z" fill="#135BEE"/>
<path d="M221.571 134.726H176.136V216.134H178.977V219.148H176.136V234.222H178.977V237.235H176.136V240.249H178.977V243.262H176.136V252.309H178.977V255.323H176.136V258.336H178.977V261.35H176.136V264.364H178.977V267.377H176.136V270.391H178.977V273.404H176.136V276.418H178.977V279.431H176.136V282.445H178.977V285.459H181.818V282.445H184.659V279.431H181.818V276.418H184.659V279.431H187.501V276.418H190.342V279.431H187.501V282.445H190.342V285.459H193.183V282.445H196.024V279.431H193.183V276.418H196.024V279.431H198.865V276.418H201.707V279.431H198.865V282.445H201.707V285.459H204.548V282.445H207.389V279.431H204.548V276.418H207.389V279.431H210.23V276.418H213.071V279.431H210.23V282.445H213.071V285.459H215.913V282.445H218.754V279.431H215.913V276.418H218.754V279.431H221.595V276.418H224.436V279.431H221.595V282.445H224.436V285.459H227.278V134.708H221.595L221.571 134.726ZM218.736 255.329H215.895V252.315H218.736V255.329ZM218.736 261.356H215.895V258.342H218.736V261.356ZM218.736 267.389H215.895V264.375H218.736V267.389ZM187.495 264.375H190.336V267.389H187.495V264.375ZM187.495 258.342H190.336V261.356H187.495V258.342ZM181.818 246.282H184.659V249.296H181.818V246.282ZM181.818 228.195H184.659V231.208H181.818V228.195ZM181.818 207.088H184.659V210.101H181.818V207.088ZM181.818 182.967H184.659V185.981H181.818V182.967ZM218.736 185.981H215.895V182.967H218.736V185.981ZM218.736 210.101H215.895V207.088H218.736V210.101ZM213.054 255.329H210.212V252.315H213.054V255.329ZM213.054 261.356H210.212V258.342H213.054V261.356ZM193.177 258.342H196.018V261.356H193.177V258.342ZM187.495 240.255H190.336V243.268H187.495V240.255ZM187.495 234.222H190.336V237.235H187.495V234.222ZM213.054 237.235H210.212V234.222H213.054V237.235ZM207.377 255.329H204.536V252.315H207.377V255.329ZM193.177 246.282H196.018V249.296H193.177V246.282ZM207.377 231.208H204.536V228.195H207.377V231.208ZM193.177 228.195H196.018V231.208H193.177V228.195ZM207.377 210.101H204.536V207.088H207.377V210.101ZM201.695 237.235H198.854V234.222H201.695V237.235ZM198.854 216.134H201.695V219.148H198.854V216.134ZM207.377 185.981H204.536V182.967H207.377V185.981ZM193.177 182.967H196.018V185.981H193.177V182.967ZM193.177 207.088H196.018V210.101H193.177V207.088ZM198.854 243.268V240.255H201.695V243.268H198.854ZM198.854 252.315H201.695V255.329H198.854V252.315ZM204.536 249.296V246.282H207.377V249.296H204.536ZM213.054 219.148H210.212V216.134H213.054V219.148ZM187.495 216.134H190.336V219.148H187.495V216.134ZM193.177 252.315H196.018V255.329H193.177V252.315ZM198.854 258.342H201.695V261.356H198.854V258.342ZM204.536 258.342H207.377V261.356H204.536V258.342ZM210.212 243.268V240.255H213.054V243.268H210.212ZM187.495 252.315H190.336V255.329H187.495V252.315ZM193.177 264.375H196.018V267.389H193.177V264.375ZM198.854 264.375H201.695V267.389H198.854V264.375ZM204.536 264.375H207.377V267.389H204.536V264.375ZM210.212 264.375H213.054V267.389H210.212V264.375ZM215.895 249.296V246.282H218.736V249.296H215.895ZM215.895 231.208V228.195H218.736V231.208H215.895ZM181.818 252.315H184.659V255.329H181.818V252.315ZM181.818 258.342H184.659V261.356H181.818V258.342ZM181.818 264.375H184.659V267.389H181.818V264.375ZM181.818 273.416V270.403H184.659V273.416H181.818ZM187.495 273.416V270.403H190.336V273.416H187.495ZM193.177 273.416V270.403H196.018V273.416H193.177ZM198.854 273.416V270.403H201.695V273.416H198.854ZM204.536 273.416V270.403H207.377V273.416H204.536ZM210.212 273.416V270.403H213.054V273.416H210.212ZM215.895 273.416V270.403H218.736V273.416H215.895ZM224.413 273.416H221.571V270.403H224.413V273.416ZM224.413 267.389H221.571V264.375H224.413V267.389ZM224.413 261.356H221.571V258.342H224.413V261.356ZM224.413 255.329H221.571V252.315H224.413V255.329ZM224.413 243.268H221.571V240.255H224.413V243.268ZM224.413 237.235H221.571V234.222H224.413V237.235ZM224.413 219.148H221.571V216.134H224.413V219.148Z" fill="#135BEE"/>
<path d="M221.571 282.463H218.736V285.476H215.895V288.496H218.736V291.51H221.571V288.496H224.413V285.476H221.571V282.463Z" fill="#135BEE"/>
<path d="M178.977 285.476H176.136V288.49H178.977V285.476Z" fill="#135BEE"/>
<path d="M184.653 288.496V291.51H187.495V288.496H190.336V285.476H187.495V282.463H184.653V285.476H181.818V288.496H184.653Z" fill="#135BEE"/>
<path d="M196.012 288.496V291.51H198.854V288.496H201.695V285.476H198.854V282.463H196.012V285.476H193.177V288.496H196.012Z" fill="#135BEE"/>
<path d="M207.377 288.496V291.51H210.212V288.496H213.054V285.476H210.212V282.463H207.377V285.476H204.536V288.496H207.377Z" fill="#135BEE"/>
<path d="M213.054 291.51H210.212V294.523H213.054V297.537H215.895V294.523H218.736V291.51H215.895V288.496H213.054V291.51Z" fill="#135BEE"/>
<path d="M190.336 294.523V297.537H193.177V294.523H196.012V291.51H193.177V288.496H190.336V291.51H187.495V294.523H190.336Z" fill="#135BEE"/>
<path d="M201.695 294.523V297.537H204.536V294.523H207.377V291.51H204.536V288.496H201.695V291.51H198.854V294.523H201.695Z" fill="#135BEE"/>
<path d="M221.571 291.51V294.523H224.413V297.537H227.254V294.523V291.51V288.496H224.413V291.51H221.571Z" fill="#135BEE"/>
<path d="M181.818 294.523H184.653V291.51H181.818V288.496H178.977V291.51H176.136V294.523H178.977V297.537H181.818V294.523Z" fill="#135BEE"/>
<path d="M187.495 294.523H184.653V297.537H187.495V294.523Z" fill="#135BEE"/>
<path d="M198.854 294.523H196.012V297.537H198.854V294.523Z" fill="#135BEE"/>
<path d="M210.218 294.523H207.377V297.537H210.218V294.523Z" fill="#135BEE"/>
<path d="M221.577 294.523H218.736V297.537H221.577V294.523Z" fill="#135BEE"/>
<path d="M178.977 297.537H176.136V300.55H178.977V297.537Z" fill="#135BEE"/>
<path d="M184.659 297.537H181.818V300.55H184.659V297.537Z" fill="#135BEE"/>
<path d="M190.336 297.537H187.495V300.55H190.336V297.537Z" fill="#135BEE"/>
<path d="M196.018 297.537H193.177V300.55H196.018V297.537Z" fill="#135BEE"/>
<path d="M201.695 297.537H198.854V300.55H201.695V297.537Z" fill="#135BEE"/>
<path d="M207.377 297.537H204.536V300.55H207.377V297.537Z" fill="#135BEE"/>
<path d="M213.054 297.537H210.212V300.55H213.054V297.537Z" fill="#135BEE"/>
<path d="M218.736 297.537H215.895V300.55H218.736V297.537Z" fill="#135BEE"/>
<path d="M224.413 297.537H221.571V300.55H224.413V297.537Z" fill="#135BEE"/>
<path d="M181.818 300.556H178.977V303.57H181.818V300.556Z" fill="#135BEE"/>
<path d="M187.495 300.556H184.653V303.57H187.495V300.556Z" fill="#135BEE"/>
<path d="M193.177 300.556H190.336V303.57H193.177V300.556Z" fill="#135BEE"/>
<path d="M198.854 300.556H196.012V303.57H198.854V300.556Z" fill="#135BEE"/>
<path d="M204.536 300.556H201.695V303.57H204.536V300.556Z" fill="#135BEE"/>
<path d="M210.218 300.556H207.377V303.57H210.218V300.556Z" fill="#135BEE"/>
<path d="M215.895 300.556H213.054V303.57H215.895V300.556Z" fill="#135BEE"/>
<path d="M221.577 300.556H218.736V303.57H221.577V300.556Z" fill="#135BEE"/>
<path d="M227.254 300.556H224.413V303.57H227.254V300.556Z" fill="#135BEE"/>
<path d="M178.977 303.57H176.136V306.583H178.977V303.57Z" fill="#135BEE"/>
<path d="M184.659 303.57H181.818V306.583H184.659V303.57Z" fill="#135BEE"/>
<path d="M190.336 303.57H187.495V306.583H190.336V303.57Z" fill="#135BEE"/>
<path d="M196.018 303.57H193.177V306.583H196.018V303.57Z" fill="#135BEE"/>
<path d="M201.695 303.57H198.854V306.583H201.695V303.57Z" fill="#135BEE"/>
<path d="M207.377 303.57H204.536V306.583H207.377V303.57Z" fill="#135BEE"/>
<path d="M213.054 303.57H210.212V306.583H213.054V303.57Z" fill="#135BEE"/>
<path d="M218.736 303.57H215.895V306.583H218.736V303.57Z" fill="#135BEE"/>
<path d="M224.413 303.57H221.571V306.583H224.413V303.57Z" fill="#135BEE"/>
<path d="M181.818 306.583H178.977V309.597H181.818V306.583Z" fill="#135BEE"/>
<path d="M187.495 306.583H184.653V309.597H187.495V306.583Z" fill="#135BEE"/>
<path d="M193.177 306.583H190.336V309.597H193.177V306.583Z" fill="#135BEE"/>
<path d="M198.854 306.583H196.012V309.597H198.854V306.583Z" fill="#135BEE"/>
<path d="M204.536 306.583H201.695V309.597H204.536V306.583Z" fill="#135BEE"/>
<path d="M210.218 306.583H207.377V309.597H210.218V306.583Z" fill="#135BEE"/>
<path d="M215.895 306.583H213.054V309.597H215.895V306.583Z" fill="#135BEE"/>
<path d="M221.577 306.583H218.736V309.597H221.577V306.583Z" fill="#135BEE"/>
<path d="M227.254 306.583H224.413V309.597H227.254V306.583Z" fill="#135BEE"/>
<path d="M178.977 309.597H176.136V312.611H178.977V309.597Z" fill="#135BEE"/>
<path d="M190.336 309.597H187.495V312.611H190.336V309.597Z" fill="#135BEE"/>
<path d="M201.695 309.597H198.854V312.611H201.695V309.597Z" fill="#135BEE"/>
<path d="M213.054 309.597H210.212V312.611H213.054V309.597Z" fill="#135BEE"/>
<path d="M224.413 309.597H221.571V312.611H224.413V309.597Z" fill="#135BEE"/>
<path d="M181.818 312.617H178.977V315.63H181.818V312.617Z" fill="#135BEE"/>
<path d="M187.495 312.617H184.653V315.63H187.495V312.617Z" fill="#135BEE"/>
<path d="M193.177 312.617H190.336V315.63H193.177V312.617Z" fill="#135BEE"/>
<path d="M198.854 312.617H196.012V315.63H198.854V312.617Z" fill="#135BEE"/>
<path d="M204.536 312.617H201.695V315.63H204.536V312.617Z" fill="#135BEE"/>
<path d="M210.218 312.617H207.377V315.63H210.218V312.617Z" fill="#135BEE"/>
<path d="M215.895 312.617H213.054V315.63H215.895V312.617Z" fill="#135BEE"/>
<path d="M221.577 312.617H218.736V315.63H221.577V312.617Z" fill="#135BEE"/>
<path d="M227.254 312.617H224.413V315.63H227.254V312.617Z" fill="#135BEE"/>
<path d="M178.977 315.63H176.136V318.644H178.977V315.63Z" fill="#135BEE"/>
<path d="M184.659 315.63H181.818V318.644H184.659V315.63Z" fill="#135BEE"/>
<path d="M190.336 315.63H187.495V318.644H190.336V315.63Z" fill="#135BEE"/>
<path d="M196.018 315.63H193.177V318.644H196.018V315.63Z" fill="#135BEE"/>
<path d="M201.695 315.63H198.854V318.644H201.695V315.63Z" fill="#135BEE"/>
<path d="M207.377 315.63H204.536V318.644H207.377V315.63Z" fill="#135BEE"/>
<path d="M213.054 315.63H210.212V318.644H213.054V315.63Z" fill="#135BEE"/>
<path d="M218.736 315.63H215.895V318.644H218.736V315.63Z" fill="#135BEE"/>
<path d="M224.413 315.63H221.571V318.644H224.413V315.63Z" fill="#135BEE"/>
<path d="M178.977 321.657H176.136V324.671H178.977V321.657Z" fill="#135BEE"/>
<path d="M184.659 321.657H181.818V324.671H184.659V321.657Z" fill="#135BEE"/>
<path d="M190.336 321.657H187.495V324.671H190.336V321.657Z" fill="#135BEE"/>
<path d="M196.018 321.657H193.177V324.671H196.018V321.657Z" fill="#135BEE"/>
<path d="M201.695 321.657H198.854V324.671H201.695V321.657Z" fill="#135BEE"/>
<path d="M207.377 321.657H204.536V324.671H207.377V321.657Z" fill="#135BEE"/>
<path d="M213.054 321.657H210.212V324.671H213.054V321.657Z" fill="#135BEE"/>
<path d="M218.736 321.657H215.895V324.671H218.736V321.657Z" fill="#135BEE"/>
<path d="M224.413 321.657H221.571V324.671H224.413V321.657Z" fill="#135BEE"/>
<path d="M178.977 327.69H176.136V330.704H178.977V327.69Z" fill="#135BEE"/>
<path d="M184.659 327.69H181.818V330.704H184.659V327.69Z" fill="#135BEE"/>
<path d="M190.336 327.69H187.495V330.704H190.336V327.69Z" fill="#135BEE"/>
<path d="M196.018 327.69H193.177V330.704H196.018V327.69Z" fill="#135BEE"/>
<path d="M201.695 327.69H198.854V330.704H201.695V327.69Z" fill="#135BEE"/>
<path d="M207.377 327.69H204.536V330.704H207.377V327.69Z" fill="#135BEE"/>
<path d="M213.054 327.69H210.212V330.704H213.054V327.69Z" fill="#135BEE"/>
<path d="M218.736 327.69H215.895V330.704H218.736V327.69Z" fill="#135BEE"/>
<path d="M224.413 327.69H221.571V330.704H224.413V327.69Z" fill="#135BEE"/>
<path d="M178.715 333.718H175.874V336.731H178.715V333.718Z" fill="#135BEE"/>
<path d="M190.205 333.718H187.364V336.731H190.205V333.718Z" fill="#135BEE"/>
<path d="M201.695 333.718H198.854V336.731H201.695V333.718Z" fill="#135BEE"/>
<path d="M213.19 333.718H210.349V336.731H213.19V333.718Z" fill="#135BEE"/>
<path d="M224.282 333.718H221.441V336.731H224.282V333.718Z" fill="#135BEE"/>
<path d="M184.523 339.751H181.681V342.764H184.523V339.751Z" fill="#135BEE"/>
<path d="M196.018 339.751H193.177V342.764H196.018V339.751Z" fill="#135BEE"/>
<path d="M207.508 339.751H204.667V342.764H207.508V339.751Z" fill="#135BEE"/>
<path d="M218.605 339.751H215.764V342.764H218.605V339.751Z" fill="#135BEE"/>
<path d="M278.633 80.0416H270.116V82.9125H261.598V85.7835H255.915V88.6544H253.074V91.5253H250.233V94.3963H247.392V97.2672H244.551V100.138H241.709V103.009H238.868V108.757H236.027V120.247H233.186V148.974H236.027V151.845H233.186V166.211H236.027V169.082H233.186V171.953H236.027V174.824H233.186V183.443H236.027V186.314H233.186V189.184H236.027V192.055H233.186V194.926H236.027V197.797H233.186V206.416H236.027V209.287H233.186V212.158H236.027V215.029H233.186V217.9H236.027V220.771H238.868V217.9H241.709V220.771H238.868V223.642H241.709V226.512H244.551V223.642H247.392V220.771H244.551V217.9H247.392V220.771H250.233V217.9H253.074V220.771H250.233V223.642H253.074V226.512H255.915V223.642H258.757V220.771H255.915V217.9H258.757V220.771H261.598V217.9H264.439V220.771H261.598V223.642H264.439V226.512H267.28V223.642H270.121V220.771H267.28V217.9H270.121V220.771H272.963V217.9H275.804V220.771H272.963V223.642H275.804V226.512H278.645V223.642H281.486V220.771H278.645V217.9H281.486V220.771H284.328V80H278.645L278.633 80.0416ZM275.798 186.337H272.957V183.466H275.798V186.337ZM275.798 209.323H272.957V206.452H275.798V209.323ZM238.88 200.704H241.721V203.575H238.88V200.704ZM238.88 177.719H241.721V180.589H238.88V177.719ZM238.88 160.481H241.721V163.352H238.88V160.481ZM238.88 137.502H241.721V140.373H238.88V137.502ZM275.798 140.373H272.957V137.502H275.798V140.373ZM270.116 197.833H267.274V194.962H270.116V197.833ZM250.239 200.704H253.08V203.575H250.239V200.704ZM250.239 194.956H253.08V197.827H250.239V194.956ZM244.557 171.977H247.398V174.848H244.557V171.977ZM244.557 166.229H247.398V169.1H244.557V166.229ZM270.116 169.1H267.274V166.229H270.116V169.1ZM264.439 186.337H261.598V183.466H264.439V186.337ZM264.439 197.833H261.598V194.962H264.439V197.833ZM255.915 197.833V194.962H258.757V197.833H255.915ZM250.239 177.719H253.08V180.589H250.239V177.719ZM264.439 163.358H261.598V160.487H264.439V163.358ZM250.239 160.481H253.08V163.352H250.239V160.481ZM264.439 140.373H261.598V137.502H264.439V140.373ZM258.757 169.1H255.915V166.229H258.757V169.1ZM255.915 148.991H258.757V151.862H255.915V148.991ZM250.239 137.502H253.08V140.373H250.239V137.502ZM255.915 174.848V171.977H258.757V174.848H255.915ZM255.915 183.466H258.757V186.337H255.915V183.466ZM258.757 189.214V192.085H255.915V189.214H258.757ZM261.598 180.595V177.725H264.439V180.595H261.598ZM270.116 151.862H267.274V148.991H270.116V151.862ZM244.557 148.991H247.398V151.862H244.557V148.991ZM250.239 183.466H253.08V186.337H250.239V183.466ZM261.598 200.704H264.439V203.575H261.598V200.704ZM267.274 192.085V189.214H270.116V192.085H267.274ZM270.116 186.337H267.274V183.466H270.116V186.337ZM267.274 174.848V171.977H270.116V174.848H267.274ZM244.557 183.466H247.398V186.337H244.557V183.466ZM247.398 189.214V192.085H244.557V189.214H247.398ZM244.557 194.956H247.398V197.827H244.557V194.956ZM244.557 206.452H247.398V209.323H244.557V206.452ZM250.239 206.452H253.08V209.323H250.239V206.452ZM255.915 206.452H258.757V209.323H255.915V206.452ZM261.598 206.452H264.439V209.323H261.598V206.452ZM267.274 206.452H270.116V209.323H267.274V206.452ZM272.957 203.575V200.704H275.798V203.575H272.957ZM275.798 197.833H272.957V194.962H275.798V197.833ZM272.957 180.595V177.725H275.798V180.595H272.957ZM272.957 163.358V160.487H275.798V163.358H272.957ZM238.88 183.466H241.721V186.337H238.88V183.466ZM238.88 194.956H241.721V197.827H238.88V194.956ZM238.88 206.452H241.721V209.323H238.88V206.452ZM238.88 215.07V212.199H241.721V215.07H238.88ZM244.557 215.07V212.199H247.398V215.07H244.557ZM250.239 215.07V212.199H253.08V215.07H250.239ZM255.915 215.07V212.199H258.757V215.07H255.915ZM261.598 215.07V212.199H264.439V215.07H261.598ZM267.274 215.07V212.199H270.116V215.07H267.274ZM272.957 215.07V212.199H275.798V215.07H272.957ZM281.474 215.07H278.633V212.199H281.474V215.07ZM281.474 209.323H278.633V206.452H281.474V209.323ZM281.474 197.833H278.633V194.962H281.474V197.833ZM281.474 192.085H278.633V189.214H281.474V192.085ZM281.474 186.337H278.633V183.466H281.474V186.337ZM281.474 174.848H278.633V171.977H281.474V174.848ZM281.474 169.1H278.633V166.229H281.474V169.1ZM281.474 151.862H278.633V148.991H281.474V151.862Z" fill="#135BEE"/>
<path d="M236.039 220.812H233.198V223.683H236.039V220.812Z" fill="#135BEE"/>
<path d="M247.398 229.431V232.308H250.239V229.431H253.074V226.56H250.239V223.689H247.398V226.56H244.557V229.431H247.398Z" fill="#135BEE"/>
<path d="M258.757 229.431V232.308H261.598V229.431H264.439V226.56H261.598V223.689H258.757V226.56H255.915V229.431H258.757Z" fill="#135BEE"/>
<path d="M270.116 229.431V232.308H272.957V229.431H275.798V226.56H272.957V223.689H270.116V226.56H267.274V229.431H270.116Z" fill="#135BEE"/>
<path d="M278.633 226.56V229.431H281.474V232.308H284.316V229.431V226.56V223.689H281.474V226.56H278.633Z" fill="#135BEE"/>
<path d="M238.88 229.431H241.715V226.56H238.88V223.689H236.039V226.56H233.198V229.431H236.039V232.308H238.88V229.431Z" fill="#135BEE"/>
<path d="M244.557 229.431H241.715V232.302H244.557V229.431Z" fill="#135BEE"/>
<path d="M267.28 229.431H264.439V232.302H267.28V229.431Z" fill="#135BEE"/>
<path d="M278.639 229.431H275.798V232.302H278.639V229.431Z" fill="#135BEE"/>
<path d="M236.039 232.308H233.198V235.179H236.039V232.308Z" fill="#135BEE"/>
<path d="M241.721 232.308H238.88V235.179H241.721V232.308Z" fill="#135BEE"/>
<path d="M247.398 232.308H244.557V235.179H247.398V232.308Z" fill="#135BEE"/>
<path d="M253.074 235.179V238.05H250.239V240.927H253.074V243.797H255.915V240.927H258.757V238.05H255.915V235.179H258.757V232.308H255.915V229.431H253.074V232.308H250.239V235.179H253.074Z" fill="#135BEE"/>
<path d="M264.439 232.308H261.598V235.179H264.439V232.308Z" fill="#135BEE"/>
<path d="M270.116 232.308H267.274V235.179H270.116V232.308Z" fill="#135BEE"/>
<path d="M275.798 232.308H272.957V235.179H275.798V232.308Z" fill="#135BEE"/>
<path d="M281.474 232.308H278.633V235.179H281.474V232.308Z" fill="#135BEE"/>
<path d="M238.88 235.179H236.039V238.05H238.88V235.179Z" fill="#135BEE"/>
<path d="M250.239 235.179H247.398V238.05H250.239V235.179Z" fill="#135BEE"/>
<path d="M261.598 235.179H258.757V238.05H261.598V235.179Z" fill="#135BEE"/>
<path d="M267.274 235.179H264.439V238.05H261.598V240.927H264.439V243.798H267.274V240.927H270.116V238.05H267.274V235.179Z" fill="#135BEE"/>
<path d="M272.957 235.179H270.116V238.05H272.957V235.179Z" fill="#135BEE"/>
<path d="M278.633 235.179H275.798V238.05H272.957V240.927H275.798V243.798H278.633V240.927H281.474V238.05H278.633V235.179Z" fill="#135BEE"/>
<path d="M284.316 235.179H281.474V238.05H284.316V235.179Z" fill="#135BEE"/>
<path d="M236.039 238.05H233.198V240.921H236.039V238.05Z" fill="#135BEE"/>
<path d="M238.88 240.927H236.039V243.797H238.88V240.927Z" fill="#135BEE"/>
<path d="M241.715 243.798H244.557V240.927H247.398V238.05H244.557V235.179H241.715V238.05H238.88V240.927H241.715V243.798Z" fill="#135BEE"/>
<path d="M250.239 240.927H247.398V243.797H250.239V240.927Z" fill="#135BEE"/>
<path d="M261.598 240.927H258.757V243.797H261.598V240.927Z" fill="#135BEE"/>
<path d="M272.957 240.927H270.116V243.797H272.957V240.927Z" fill="#135BEE"/>
<path d="M284.316 240.927H281.474V243.797H284.316V240.927Z" fill="#135BEE"/>
<path d="M236.039 243.797H233.198V246.668H236.039V243.797Z" fill="#135BEE"/>
<path d="M241.721 243.797H238.88V246.668H241.721V243.797Z" fill="#135BEE"/>
<path d="M247.398 243.797H244.557V246.668H247.398V243.797Z" fill="#135BEE"/>
<path d="M253.08 243.797H250.239V246.668H253.08V243.797Z" fill="#135BEE"/>
<path d="M258.757 243.797H255.915V246.668H258.757V243.797Z" fill="#135BEE"/>
<path d="M264.439 243.797H261.598V246.668H264.439V243.797Z" fill="#135BEE"/>
<path d="M270.116 243.797H267.274V246.668H270.116V243.797Z" fill="#135BEE"/>
<path d="M275.798 243.797H272.957V246.668H275.798V243.797Z" fill="#135BEE"/>
<path d="M281.474 243.797H278.633V246.668H281.474V243.797Z" fill="#135BEE"/>
<path d="M238.88 246.668H236.039V249.539H238.88V246.668Z" fill="#135BEE"/>
<path d="M244.557 246.668H241.715V249.539H244.557V246.668Z" fill="#135BEE"/>
<path d="M250.239 246.668H247.398V249.539H250.239V246.668Z" fill="#135BEE"/>
<path d="M255.915 246.668H253.074V249.539H255.915V246.668Z" fill="#135BEE"/>
<path d="M261.598 246.668H258.757V249.539H261.598V246.668Z" fill="#135BEE"/>
<path d="M267.28 246.668H264.439V249.539H267.28V246.668Z" fill="#135BEE"/>
<path d="M272.957 246.668H270.116V249.539H272.957V246.668Z" fill="#135BEE"/>
<path d="M278.639 246.668H275.798V249.539H278.639V246.668Z" fill="#135BEE"/>
<path d="M284.316 246.668H281.474V249.539H284.316V246.668Z" fill="#135BEE"/>
<path d="M236.039 249.545H233.198V252.416H236.039V249.545Z" fill="#135BEE"/>
<path d="M241.721 249.545H238.88V252.416H241.721V249.545Z" fill="#135BEE"/>
<path d="M247.398 249.545H244.557V252.416H247.398V249.545Z" fill="#135BEE"/>
<path d="M253.08 249.545H250.239V252.416H253.08V249.545Z" fill="#135BEE"/>
<path d="M258.757 249.545H255.915V252.416H258.757V249.545Z" fill="#135BEE"/>
<path d="M264.439 249.545H261.598V252.416H264.439V249.545Z" fill="#135BEE"/>
<path d="M270.116 249.545H267.274V252.416H270.116V249.545Z" fill="#135BEE"/>
<path d="M275.798 249.545H272.957V252.416H275.798V249.545Z" fill="#135BEE"/>
<path d="M281.474 249.545H278.633V252.416H281.474V249.545Z" fill="#135BEE"/>
<path d="M238.88 252.416H236.039V255.287H238.88V252.416Z" fill="#135BEE"/>
<path d="M250.239 252.416H247.398V255.287H250.239V252.416Z" fill="#135BEE"/>
<path d="M261.598 252.416H258.757V255.287H261.598V252.416Z" fill="#135BEE"/>
<path d="M272.957 252.416H270.116V255.287H272.957V252.416Z" fill="#135BEE"/>
<path d="M284.316 252.416H281.474V255.287H284.316V252.416Z" fill="#135BEE"/>
<path d="M236.039 255.287H233.198V258.158H236.039V255.287Z" fill="#135BEE"/>
<path d="M241.721 255.287H238.88V258.158H241.721V255.287Z" fill="#135BEE"/>
<path d="M247.398 255.287H244.557V258.158H247.398V255.287Z" fill="#135BEE"/>
<path d="M253.08 255.287H250.239V258.158H253.08V255.287Z" fill="#135BEE"/>
<path d="M258.757 255.287H255.915V258.158H258.757V255.287Z" fill="#135BEE"/>
<path d="M264.439 255.287H261.598V258.158H264.439V255.287Z" fill="#135BEE"/>
<path d="M270.116 255.287H267.274V258.158H270.116V255.287Z" fill="#135BEE"/>
<path d="M275.798 255.287H272.957V258.158H275.798V255.287Z" fill="#135BEE"/>
<path d="M281.474 255.287H278.633V258.158H281.474V255.287Z" fill="#135BEE"/>
<path d="M238.88 258.164H236.039V261.035H238.88V258.164Z" fill="#135BEE"/>
<path d="M244.557 258.164H241.715V261.035H244.557V258.164Z" fill="#135BEE"/>
<path d="M255.915 258.164H253.074V261.035H255.915V258.164Z" fill="#135BEE"/>
<path d="M267.28 258.164H264.439V261.035H267.28V258.164Z" fill="#135BEE"/>
<path d="M278.639 258.164H275.798V261.035H278.639V258.164Z" fill="#135BEE"/>
<path d="M236.039 261.035H233.198V263.906H236.039V261.035Z" fill="#135BEE"/>
<path d="M241.721 261.035H238.88V263.906H241.721V261.035Z" fill="#135BEE"/>
<path d="M247.398 261.035H244.557V263.906H247.398V261.035Z" fill="#135BEE"/>
<path d="M253.08 261.035H250.239V263.906H253.08V261.035Z" fill="#135BEE"/>
<path d="M258.757 261.035H255.915V263.906H258.757V261.035Z" fill="#135BEE"/>
<path d="M264.439 261.035H261.598V263.906H264.439V261.035Z" fill="#135BEE"/>
<path d="M270.116 261.035H267.274V263.906H270.116V261.035Z" fill="#135BEE"/>
<path d="M275.798 261.035H272.957V263.906H275.798V261.035Z" fill="#135BEE"/>
<path d="M281.474 261.035H278.633V263.906H281.474V261.035Z" fill="#135BEE"/>
<path d="M236.039 266.783H233.198V269.654H236.039V266.783Z" fill="#135BEE"/>
<path d="M241.721 266.783H238.88V269.654H241.721V266.783Z" fill="#135BEE"/>
<path d="M247.398 266.783H244.557V269.654H247.398V266.783Z" fill="#135BEE"/>
<path d="M253.08 266.783H250.239V269.654H253.08V266.783Z" fill="#135BEE"/>
<path d="M258.757 266.783H255.915V269.654H258.757V266.783Z" fill="#135BEE"/>
<path d="M264.439 266.783H261.598V269.654H264.439V266.783Z" fill="#135BEE"/>
<path d="M270.116 266.783H267.274V269.654H270.116V266.783Z" fill="#135BEE"/>
<path d="M275.798 266.783H272.957V269.654H275.798V266.783Z" fill="#135BEE"/>
<path d="M281.474 266.783H278.633V269.654H281.474V266.783Z" fill="#135BEE"/>
<path d="M238.88 269.654H236.039V272.525H238.88V269.654Z" fill="#135BEE"/>
<path d="M250.239 269.654H247.398V272.525H250.239V269.654Z" fill="#135BEE"/>
<path d="M261.598 269.654H258.757V272.525H261.598V269.654Z" fill="#135BEE"/>
<path d="M272.957 269.654H270.116V272.525H272.957V269.654Z" fill="#135BEE"/>
<path d="M284.316 269.654H281.474V272.525H284.316V269.654Z" fill="#135BEE"/>
<path d="M236.039 272.525H233.198V275.396H236.039V272.525Z" fill="#135BEE"/>
<path d="M241.721 272.525H238.88V275.396H241.721V272.525Z" fill="#135BEE"/>
<path d="M247.398 272.525H244.557V275.396H247.398V272.525Z" fill="#135BEE"/>
<path d="M253.08 272.525H250.239V275.396H253.08V272.525Z" fill="#135BEE"/>
<path d="M258.757 272.525H255.915V275.396H258.757V272.525Z" fill="#135BEE"/>
<path d="M264.439 272.525H261.598V275.396H264.439V272.525Z" fill="#135BEE"/>
<path d="M270.116 272.525H267.274V275.396H270.116V272.525Z" fill="#135BEE"/>
<path d="M275.798 272.525H272.957V275.396H275.798V272.525Z" fill="#135BEE"/>
<path d="M281.474 272.525H278.633V275.396H281.474V272.525Z" fill="#135BEE"/>
<path d="M241.721 278.272H238.88V281.143H241.721V278.272Z" fill="#135BEE"/>
<path d="M253.08 278.272H250.239V281.143H253.08V278.272Z" fill="#135BEE"/>
<path d="M264.439 278.272H261.598V281.143H264.439V278.272Z" fill="#135BEE"/>
<path d="M275.798 278.272H272.957V281.143H275.798V278.272Z" fill="#135BEE"/>
<path d="M236.039 284.02H233.198V286.891H236.039V284.02Z" fill="#135BEE"/>
<path d="M247.398 284.02H244.557V286.891H247.398V284.02Z" fill="#135BEE"/>
<path d="M258.757 284.02H255.915V286.891H258.757V284.02Z" fill="#135BEE"/>
<path d="M270.116 284.02H267.274V286.891H270.116V284.02Z" fill="#135BEE"/>
<path d="M281.474 284.02H278.633V286.891H281.474V284.02Z" fill="#135BEE"/>
<path d="M336.135 140.105V134.393H333.27V128.681H330.405V125.828H327.54V122.975H324.675V120.122H318.939V117.269H313.203V114.416H301.737V111.562H290.271V197.244H293.136V194.391H296.001V197.244H293.136V200.098H296.001V202.951H298.866V200.098H301.731V197.244H298.866V194.391H301.731V197.244H304.596V194.391H307.461V197.244H304.596V200.098H307.461V202.951H310.326V200.098H313.191V197.244H310.326V194.391H313.191V197.244H316.056V194.391H318.921V197.244H316.056V200.098H318.921V202.951H321.786V200.098H324.651V197.244H321.786V194.391H324.651V197.244H327.516V194.391H330.381V197.244H327.516V200.098H330.381V202.951H333.246V200.098H336.111V197.244H333.246V194.391H336.111V197.244H338.976V140.123H336.111L336.135 140.105ZM330.399 185.802H327.534V182.949H330.399V185.802ZM298.86 182.943H301.725V185.796H298.86V182.943ZM298.86 171.519H301.725V174.372H298.86V171.519ZM324.663 168.666H321.798V165.813H324.663V168.666ZM318.933 162.954H316.068V160.101H318.933V162.954ZM310.326 165.807H313.191V168.66H310.326V165.807ZM304.596 160.095H307.461V162.948H304.596V160.095ZM310.326 174.378V171.525H313.191V174.378H310.326ZM304.596 177.231H307.461V180.084H304.596V177.231ZM316.062 177.231H318.927V180.084H316.062V177.231ZM321.798 174.378V171.525H324.663V174.378H321.798ZM301.725 165.807V168.66H298.86V165.807H301.725ZM304.596 182.943H307.461V185.796H304.596V182.943ZM310.326 182.943H313.191V185.796H310.326V182.943ZM316.062 182.943H318.927V185.796H316.062V182.943ZM321.798 182.943H324.663V185.796H321.798V182.943ZM327.534 180.09V177.237H330.399V180.09H327.534ZM327.534 162.954V160.101H330.399V162.954H327.534ZM293.125 160.095H295.99V162.948H293.125V160.095ZM293.125 177.231H295.99V180.084H293.125V177.231ZM293.125 182.943H295.99V185.796H293.125V182.943ZM293.125 191.515V188.661H295.99V191.515H293.125ZM298.86 191.515V188.661H301.725V191.515H298.86ZM304.596 191.515V188.661H307.461V191.515H304.596ZM310.326 191.515V188.661H313.191V191.515H310.326ZM316.062 191.515V188.661H318.927V191.515H316.062ZM321.798 191.515V188.661H324.663V191.515H321.798ZM327.534 191.515V188.661H330.399V191.515H327.534ZM336.135 191.515H333.27V188.661H336.135V191.515ZM336.135 185.802H333.27V182.949H336.135V185.802ZM336.135 174.378H333.27V171.525H336.135V174.378ZM336.135 168.666H333.27V165.813H336.135V168.666Z" fill="#135BEE"/>
<path d="M295.996 205.792V202.939H293.125V200.08H290.26V202.939V205.792V208.651H293.125V205.792H295.996Z" fill="#135BEE"/>
<path d="M301.725 205.792V208.651H304.596V205.792H307.461V202.939H304.596V200.08H301.725V202.939H298.86V205.792H301.725Z" fill="#135BEE"/>
<path d="M313.197 205.792V208.651H316.062V205.792H318.933V202.939H316.062V200.08H313.197V202.939H310.326V205.792H313.197Z" fill="#135BEE"/>
<path d="M324.663 205.792V208.651H327.534V205.792H330.399V202.939H327.534V200.08H324.663V202.939H321.798V205.792H324.663Z" fill="#135BEE"/>
<path d="M333.264 202.939V205.792H336.135V208.651H339V205.792V202.939V200.08H336.135V202.939H333.264Z" fill="#135BEE"/>
<path d="M298.86 205.792H295.996V208.645H298.86V205.792Z" fill="#135BEE"/>
<path d="M310.326 205.792H307.461V208.645H310.326V205.792Z" fill="#135BEE"/>
<path d="M321.798 205.792H318.933V208.645H321.798V205.792Z" fill="#135BEE"/>
<path d="M333.264 205.792H330.399V208.645H333.264V205.792Z" fill="#135BEE"/>
<path d="M295.99 208.651H293.125V211.504H295.99V208.651Z" fill="#135BEE"/>
<path d="M301.725 208.651H298.86V211.504H301.725V208.651Z" fill="#135BEE"/>
<path d="M307.461 208.651H304.596V211.504H307.461V208.651Z" fill="#135BEE"/>
<path d="M313.191 208.651H310.326V211.504H313.191V208.651Z" fill="#135BEE"/>
<path d="M318.927 208.651H316.062V211.504H318.927V208.651Z" fill="#135BEE"/>
<path d="M324.663 208.651H321.798V211.504H324.663V208.651Z" fill="#135BEE"/>
<path d="M330.399 208.651H327.534V211.504H330.399V208.651Z" fill="#135BEE"/>
<path d="M336.129 208.651H333.264V211.504H336.129V208.651Z" fill="#135BEE"/>
<path d="M293.125 211.504H290.26V214.357H293.125V211.504Z" fill="#135BEE"/>
<path d="M298.86 211.504H295.996V214.357H298.86V211.504Z" fill="#135BEE"/>
<path d="M304.59 211.504H301.725V214.357H304.59V211.504Z" fill="#135BEE"/>
<path d="M310.326 211.504H307.461V214.357H310.326V211.504Z" fill="#135BEE"/>
<path d="M316.062 211.504H313.197V214.357H316.062V211.504Z" fill="#135BEE"/>
<path d="M321.798 211.504H318.933V214.357H321.798V211.504Z" fill="#135BEE"/>
<path d="M327.528 211.504H324.663V214.357H327.528V211.504Z" fill="#135BEE"/>
<path d="M333.264 211.504H330.399V214.357H333.264V211.504Z" fill="#135BEE"/>
<path d="M339 211.504H336.135V214.357H339V211.504Z" fill="#135BEE"/>
<path d="M295.99 214.363H293.125V217.216H295.99V214.363Z" fill="#135BEE"/>
<path d="M301.725 214.363H298.86V217.216H301.725V214.363Z" fill="#135BEE"/>
<path d="M307.461 214.363H304.596V217.216H307.461V214.363Z" fill="#135BEE"/>
<path d="M313.191 214.363H310.326V217.216H313.191V214.363Z" fill="#135BEE"/>
<path d="M318.927 214.363H316.062V217.216H318.927V214.363Z" fill="#135BEE"/>
<path d="M324.663 214.363H321.798V217.216H324.663V214.363Z" fill="#135BEE"/>
<path d="M330.399 214.363H327.534V217.216H330.399V214.363Z" fill="#135BEE"/>
<path d="M336.129 214.363H333.264V217.216H336.129V214.363Z" fill="#135BEE"/>
<path d="M298.86 217.216H295.996V220.069H298.86V217.216Z" fill="#135BEE"/>
<path d="M310.326 217.216H307.461V220.069H310.326V217.216Z" fill="#135BEE"/>
<path d="M321.798 217.216H318.933V220.069H321.798V217.216Z" fill="#135BEE"/>
<path d="M333.264 217.216H330.399V220.069H333.264V217.216Z" fill="#135BEE"/>
<path d="M295.99 220.075H293.125V222.928H295.99V220.075Z" fill="#135BEE"/>
<path d="M301.725 220.075H298.86V222.928H301.725V220.075Z" fill="#135BEE"/>
<path d="M307.461 220.075H304.596V222.928H307.461V220.075Z" fill="#135BEE"/>
<path d="M313.191 220.075H310.326V222.928H313.191V220.075Z" fill="#135BEE"/>
<path d="M318.927 220.075H316.062V222.928H318.927V220.075Z" fill="#135BEE"/>
<path d="M324.663 220.075H321.798V222.928H324.663V220.075Z" fill="#135BEE"/>
<path d="M330.399 220.075H327.534V222.928H330.399V220.075Z" fill="#135BEE"/>
<path d="M336.129 220.075H333.264V222.928H336.129V220.075Z" fill="#135BEE"/>
<path d="M293.125 222.928H290.26V225.781H293.125V222.928Z" fill="#135BEE"/>
<path d="M304.59 222.928H301.725V225.781H304.59V222.928Z" fill="#135BEE"/>
<path d="M316.062 222.928H313.197V225.781H316.062V222.928Z" fill="#135BEE"/>
<path d="M327.528 222.928H324.663V225.781H327.528V222.928Z" fill="#135BEE"/>
<path d="M339 222.928H336.135V225.781H339V222.928Z" fill="#135BEE"/>
<path d="M295.99 225.787H293.125V228.64H295.99V225.787Z" fill="#135BEE"/>
<path d="M301.725 225.787H298.86V228.64H301.725V225.787Z" fill="#135BEE"/>
<path d="M307.461 225.787H304.596V228.64H307.461V225.787Z" fill="#135BEE"/>
<path d="M313.191 225.787H310.326V228.64H313.191V225.787Z" fill="#135BEE"/>
<path d="M318.927 225.787H316.062V228.64H318.927V225.787Z" fill="#135BEE"/>
<path d="M324.663 225.787H321.798V228.64H324.663V225.787Z" fill="#135BEE"/>
<path d="M330.399 225.787H327.534V228.64H330.399V225.787Z" fill="#135BEE"/>
<path d="M336.129 225.787H333.264V228.64H336.129V225.787Z" fill="#135BEE"/>
<path d="M107.447 111.545H98.9298V114.398H87.5709V117.251H81.8885V120.104H76.206V122.957H73.3648V125.81H70.5236V128.663H67.6824V134.375H64.8412V140.087H62V165.789H64.8412V168.642H62V171.495H64.8412V174.348H62V182.914H64.8412V185.767H62V188.62H64.8412V191.473H62V194.326H64.8412V197.179H67.6824V194.326H70.5236V197.179H67.6824V200.032H70.5236V202.885H73.3648V200.032H76.206V197.179H73.3648V194.326H76.206V197.179H79.0473V194.326H81.8885V197.179H79.0473V200.032H81.8885V202.885H84.7297V200.032H87.5709V197.179H84.7297V194.326H87.5709V197.179H90.4121V194.326H93.2533V197.179H90.4121V200.032H93.2533V202.885H96.0945V200.032H98.9357V197.179H96.0945V194.326H98.9357V197.179H101.777V194.326H104.618V197.179H101.777V200.032H104.618V202.885H107.459V200.032H110.301V197.179H107.459V194.326H110.301V197.179H113.142V111.497H107.459L107.447 111.545ZM104.612 185.802H101.771V182.949H104.612V185.802ZM67.6943 177.231H70.5355V180.084H67.6943V177.231ZM67.6943 160.095H70.5355V162.948H67.6943V160.095ZM73.3708 171.519H76.212V174.372H73.3708V171.519ZM73.3708 165.807H76.212V168.66H73.3708V165.807ZM98.9298 168.666H96.0886V165.813H98.9298V168.666ZM93.2533 162.954H90.4121V160.101H93.2533V162.954ZM79.0532 160.095H81.8944V162.948H79.0532V160.095ZM84.7297 165.807H87.5709V168.66H84.7297V165.807ZM84.7297 174.378V171.525H87.5709V174.378H84.7297ZM79.0532 177.231H81.8944V180.084H79.0532V177.231ZM90.4121 177.231H93.2533V180.084H90.4121V177.231ZM96.0886 174.378V171.525H98.9298V174.378H96.0886ZM73.3708 182.943H76.212V185.796H73.3708V182.943ZM79.0532 182.943H81.8944V185.796H79.0532V182.943ZM84.7297 182.943H87.5709V185.796H84.7297V182.943ZM90.4121 182.943H93.2533V185.796H90.4121V182.943ZM96.0886 182.943H98.9298V185.796H96.0886V182.943ZM101.771 180.09V177.237H104.612V180.09H101.771ZM101.771 162.954V160.101H104.612V162.954H101.771ZM67.6943 182.943H70.5355V185.796H67.6943V182.943ZM67.6943 191.515V188.661H70.5355V191.515H67.6943ZM73.3708 191.515V188.661H76.212V191.515H73.3708ZM79.0532 191.515V188.661H81.8944V191.515H79.0532ZM84.7297 191.515V188.661H87.5709V191.515H84.7297ZM90.4121 191.515V188.661H93.2533V191.515H90.4121ZM96.0886 191.515V188.661H98.9298V191.515H96.0886ZM101.771 191.515V188.661H104.612V191.515H101.771ZM110.289 191.515H107.447V188.661H110.289V191.515ZM110.289 185.802H107.447V182.949H110.289V185.802ZM110.289 174.378H107.447V171.525H110.289V174.378ZM110.289 168.666H107.447V165.813H110.289V168.666Z" fill="#135BEE"/>
<path d="M64.8531 197.227H62.0119V200.08H64.8531V197.227Z" fill="#135BEE"/>
<path d="M76.212 205.792V208.651H79.0532V205.792H81.8884V202.939H79.0532V200.08H76.212V202.939H73.3708V205.792H76.212Z" fill="#135BEE"/>
<path d="M87.5709 205.792V208.651H90.4121V205.792H93.2533V202.939H90.4121V200.08H87.5709V202.939H84.7297V205.792H87.5709Z" fill="#135BEE"/>
<path d="M98.9298 205.792V208.651H101.771V205.792H104.612V202.939H101.771V200.08H98.9298V202.939H96.0886V205.792H98.9298Z" fill="#135BEE"/>
<path d="M107.447 202.939V205.792H110.289V208.651H113.13V205.792V202.939V200.08H110.289V202.939H107.447Z" fill="#135BEE"/>
<path d="M67.6943 205.792H70.5296V202.939H67.6943V200.08H64.8531V202.939H62.0119V205.792H64.8531V208.651H67.6943V205.792Z" fill="#135BEE"/>
<path d="M73.3708 205.792H70.5296V208.645H73.3708V205.792Z" fill="#135BEE"/>
<path d="M84.7297 205.792H81.8885V208.645H84.7297V205.792Z" fill="#135BEE"/>
<path d="M96.0945 205.792H93.2533V208.645H96.0945V205.792Z" fill="#135BEE"/>
<path d="M107.453 205.792H104.612V208.645H107.453V205.792Z" fill="#135BEE"/>
<path d="M64.8531 208.651H62.0119V211.504H64.8531V208.651Z" fill="#135BEE"/>
<path d="M70.5355 208.651H67.6943V211.504H70.5355V208.651Z" fill="#135BEE"/>
<path d="M76.212 208.651H73.3708V211.504H76.212V208.651Z" fill="#135BEE"/>
<path d="M81.8944 208.651H79.0532V211.504H81.8944V208.651Z" fill="#135BEE"/>
<path d="M87.5709 208.651H84.7297V211.504H87.5709V208.651Z" fill="#135BEE"/>
<path d="M93.2533 208.651H90.4121V211.504H93.2533V208.651Z" fill="#135BEE"/>
<path d="M98.9298 208.651H96.0886V211.504H98.9298V208.651Z" fill="#135BEE"/>
<path d="M104.612 208.651H101.771V211.504H104.612V208.651Z" fill="#135BEE"/>
<path d="M110.289 208.651H107.447V211.504H110.289V208.651Z" fill="#135BEE"/>
<path d="M67.6943 211.504H64.8531V214.357H67.6943V211.504Z" fill="#135BEE"/>
<path d="M73.3708 211.504H70.5296V214.357H73.3708V211.504Z" fill="#135BEE"/>
<path d="M79.0532 211.504H76.212V214.357H79.0532V211.504Z" fill="#135BEE"/>
<path d="M84.7297 211.504H81.8885V214.357H84.7297V211.504Z" fill="#135BEE"/>
<path d="M90.4121 211.504H87.5709V214.357H90.4121V211.504Z" fill="#135BEE"/>
<path d="M96.0945 211.504H93.2533V214.357H96.0945V211.504Z" fill="#135BEE"/>
<path d="M101.771 211.504H98.9297V214.357H101.771V211.504Z" fill="#135BEE"/>
<path d="M107.453 211.504H104.612V214.357H107.453V211.504Z" fill="#135BEE"/>
<path d="M113.13 211.504H110.289V214.357H113.13V211.504Z" fill="#135BEE"/>
<path d="M64.8531 214.363H62.0119V217.216H64.8531V214.363Z" fill="#135BEE"/>
<path d="M70.5355 214.363H67.6943V217.216H70.5355V214.363Z" fill="#135BEE"/>
<path d="M76.212 214.363H73.3708V217.216H76.212V214.363Z" fill="#135BEE"/>
<path d="M81.8944 214.363H79.0532V217.216H81.8944V214.363Z" fill="#135BEE"/>
<path d="M87.5709 214.363H84.7297V217.216H87.5709V214.363Z" fill="#135BEE"/>
<path d="M93.2533 214.363H90.4121V217.216H93.2533V214.363Z" fill="#135BEE"/>
<path d="M98.9298 214.363H96.0886V217.216H98.9298V214.363Z" fill="#135BEE"/>
<path d="M104.612 214.363H101.771V217.216H104.612V214.363Z" fill="#135BEE"/>
<path d="M110.289 214.363H107.447V217.216H110.289V214.363Z" fill="#135BEE"/>
<path d="M73.3708 217.216H70.5296V220.069H73.3708V217.216Z" fill="#135BEE"/>
<path d="M84.7297 217.216H81.8885V220.069H84.7297V217.216Z" fill="#135BEE"/>
<path d="M96.0945 217.216H93.2533V220.069H96.0945V217.216Z" fill="#135BEE"/>
<path d="M107.453 217.216H104.612V220.069H107.453V217.216Z" fill="#135BEE"/>
<path d="M64.8531 220.075H62.0119V222.928H64.8531V220.075Z" fill="#135BEE"/>
<path d="M70.5355 220.075H67.6943V222.928H70.5355V220.075Z" fill="#135BEE"/>
<path d="M76.212 220.075H73.3708V222.928H76.212V220.075Z" fill="#135BEE"/>
<path d="M81.8944 220.075H79.0532V222.928H81.8944V220.075Z" fill="#135BEE"/>
<path d="M87.5709 220.075H84.7297V222.928H87.5709V220.075Z" fill="#135BEE"/>
<path d="M93.2533 220.075H90.4121V222.928H93.2533V220.075Z" fill="#135BEE"/>
<path d="M98.9298 220.075H96.0886V222.928H98.9298V220.075Z" fill="#135BEE"/>
<path d="M104.612 220.075H101.771V222.928H104.612V220.075Z" fill="#135BEE"/>
<path d="M110.289 220.075H107.447V222.928H110.289V220.075Z" fill="#135BEE"/>
<path d="M67.6943 222.928H64.8531V225.781H67.6943V222.928Z" fill="#135BEE"/>
<path d="M79.0532 222.928H76.212V225.781H79.0532V222.928Z" fill="#135BEE"/>
<path d="M90.4121 222.928H87.5709V225.781H90.4121V222.928Z" fill="#135BEE"/>
<path d="M101.771 222.928H98.9297V225.781H101.771V222.928Z" fill="#135BEE"/>
<path d="M113.13 222.928H110.289V225.781H113.13V222.928Z" fill="#135BEE"/>
<path d="M64.8531 225.787H62.0119V228.64H64.8531V225.787Z" fill="#135BEE"/>
<path d="M70.5355 225.787H67.6943V228.64H70.5355V225.787Z" fill="#135BEE"/>
<path d="M76.212 225.787H73.3708V228.64H76.212V225.787Z" fill="#135BEE"/>
<path d="M81.8944 225.787H79.0532V228.64H81.8944V225.787Z" fill="#135BEE"/>
<path d="M87.5709 225.787H84.7297V228.64H87.5709V225.787Z" fill="#135BEE"/>
<path d="M93.2533 225.787H90.4121V228.64H93.2533V225.787Z" fill="#135BEE"/>
<path d="M98.9298 225.787H96.0886V228.64H98.9298V225.787Z" fill="#135BEE"/>
<path d="M104.612 225.787H101.771V228.64H104.612V225.787Z" fill="#135BEE"/>
<path d="M110.289 225.787H107.447V228.64H110.289V225.787Z" fill="#135BEE"/>
</svg>
