<?xml version="1.0" encoding="utf-8"?>
<!-- Generator: Adobe Illustrator 26.0.1, SVG Export Plug-In . SVG Version: 6.00 Build 0)  -->
<svg version="1.1" id="Слой_1" xmlns="http://www.w3.org/2000/svg" xmlns:xlink="http://www.w3.org/1999/xlink" x="0px" y="0px"
	 viewBox="0 0 600 62.75" style="enable-background:new 0 0 600 62.75;" xml:space="preserve">
<style type="text/css">
	.st0{fill:#FFFFFF;}
	.st1{fill:#22272E;}
	.st2{fill:#FA7A18;}
	.st3{fill:#383838;}
	.st4{fill:#5E656D;}
</style>
<g>
	<path class="st1" d="M66.06,21.6v10.61c0,0.4,0.32,0.72,0.72,0.72h4.58c0.29-0.29,0.45-0.45,0.74-0.74V21.6
		c0-0.4-0.32-0.72-0.72-0.72h-4.6C66.38,20.88,66.06,21.2,66.06,21.6z M63.93,36.71c-0.22,0.06-0.45,0.09-0.68,0.09h-4
		c-1.55,0-2.82-1.26-2.82-2.81V21.6c0-0.4-0.32-0.72-0.72-0.72h-4.6c-0.4,0-0.72,0.32-0.72,0.72v10.74c0,1.4,0.27,2.74,0.81,4.02
		c0.53,1.23,1.26,2.33,2.22,3.27c1.02,1.03,2.22,1.81,3.58,2.34c1.24,0.49,2.58,0.68,3.92,0.68l0.86,0c1.4,0,2.74-0.27,4.02-0.81
		c1.22-0.53,2.33-1.26,3.27-2.22c0.56-0.56,1.05-1.17,1.46-1.83c0.29-0.47-0.06-1.09-0.62-1.09H63.93z"/>
	<path class="st1" d="M98.28,21.07H91.8c-0.23,0-0.44,0.09-0.6,0.25l-7.51,7.51c-0.54,0.54-1.46,0.16-1.46-0.6v-6.29
		c0-0.47-0.38-0.86-0.86-0.86h-4.59c-0.47,0-0.86,0.38-0.86,0.86v14.64l-0.06,0.07l0.06,0.06l0.01,5.19c0,0.47,0.38,0.85,0.86,0.85
		h4.58c0.47,0,0.86-0.38,0.86-0.86v-2.36c0-0.23,0.09-0.44,0.25-0.6l16.4-16.4C99.42,21.99,99.04,21.07,98.28,21.07z M88.3,39.66
		l2.89,2.89c0.16,0.16,0.38,0.25,0.6,0.25h6.49c0.76,0,1.14-0.92,0.6-1.46l-6.03-6.03c-0.33-0.33-0.85-0.33-1.19-0.02l-3.34,3.15
		C87.97,38.77,87.96,39.32,88.3,39.66z"/>
	<path class="st1" d="M169.1,21.55l-6.25,12.62c-0.02,0.04-0.03,0.07-0.05,0.11l-2.42,7.31c-0.18,0.56,0.23,1.13,0.81,1.13h3.91
		c0.33,0,0.62-0.18,0.77-0.48l9.87-19.93c0.28-0.57-0.13-1.24-0.77-1.24h-5.11C169.54,21.07,169.24,21.26,169.1,21.55z
		 M155.77,21.07h-5.11c-0.64,0-1.05,0.67-0.77,1.24l7.14,14.41c0.33,0.67,1.3,0.62,1.57-0.07l2.23-5.81
		c0.09-0.22,0.07-0.47-0.03-0.69l-4.26-8.6C156.4,21.26,156.1,21.07,155.77,21.07z"/>
	<path class="st1" d="M197.97,38.33v2.58c0,1.03-0.83,1.86-1.86,1.86h-15.8c-1.03,0-1.86-0.83-1.86-1.86V22.95
		c0-1.03,0.83-1.86,1.86-1.86h2.58c1.03,0,1.86,0.83,1.86,1.86v11.67c0,1.03,0.83,1.86,1.86,1.86h9.5
		C197.14,36.47,197.97,37.3,197.97,38.33z"/>
	<path class="st1" d="M213.59,22.86l-7.39,19.04c-0.2,0.52-0.7,0.86-1.25,0.86h-3.87c-0.94,0-1.59-0.95-1.25-1.83l7.39-19.04
		c0.2-0.52,0.7-0.86,1.25-0.86h3.87C213.29,21.03,213.94,21.98,213.59,22.86z"/>
	<path class="st1" d="M338.95,21.97v4.12c0,0.6-0.49,1.09-1.09,1.09h-5.55c-0.6,0-1.09,0.49-1.09,1.09v13.3
		c0,0.6-0.49,1.09-1.09,1.09h-4.12c-0.6,0-1.09-0.49-1.09-1.09v-13.3c0-0.6-0.49-1.09-1.09-1.09h-5.55c-0.6,0-1.09-0.49-1.09-1.09
		v-4.12c0-0.6,0.49-1.09,1.09-1.09h19.56C338.47,20.88,338.95,21.37,338.95,21.97z"/>
	<path class="st1" d="M351.62,35.17l-10.85-0.02l0.01-6.29l10.85,0.02L351.62,35.17z"/>
	<path class="st1" d="M418.88,35.17l-10.85-0.02l0.01-6.29l10.85,0.02L418.88,35.17z"/>
	<path class="st2" d="M374.5,36.8h-10.19c-1.9,0-3.46-1.56-3.46-3.46v-2.72c0-1.9,1.56-3.46,3.46-3.46h9.93
		c0.31,0,0.61-0.09,0.86-0.27l0.66-0.45c0.52-0.35,0.61-1.08,0.2-1.56c-2.05-2.4-5.05-3.8-8.25-3.8h-1.96
		c-1.47,0-2.89,0.29-4.23,0.85c-1.29,0.55-2.45,1.34-3.45,2.33c-0.99,0.99-1.78,2.15-2.33,3.45c-0.56,1.34-0.85,2.75-0.85,4.23
		c0,1.46,0.29,2.88,0.85,4.23c0.55,1.28,1.34,2.45,2.33,3.45c0.99,0.99,2.15,1.77,3.45,2.32c1.34,0.57,2.75,0.86,4.23,0.86h1.96
		c3.24,0,6.27-1.44,8.31-3.88c0.4-0.48,0.29-1.2-0.22-1.54l-0.45-0.3C375.1,36.89,374.8,36.8,374.5,36.8z"/>
	<path class="st1" d="M466.98,36.8h-10.19c-1.9,0-3.46-1.56-3.46-3.46v-2.72c0-1.9,1.56-3.46,3.46-3.46h9.93
		c0.31,0,0.61-0.09,0.86-0.27l0.66-0.45c0.52-0.35,0.61-1.08,0.2-1.56c-2.05-2.4-5.05-3.8-8.25-3.8h-1.96
		c-1.47,0-2.89,0.29-4.23,0.85c-1.29,0.55-2.45,1.34-3.45,2.33c-0.99,0.99-1.78,2.15-2.33,3.45c-0.56,1.34-0.85,2.75-0.85,4.23
		c0,1.46,0.29,2.88,0.85,4.23c0.55,1.28,1.34,2.45,2.33,3.45c0.99,0.99,2.15,1.77,3.45,2.32c1.34,0.57,2.75,0.86,4.23,0.86h1.96
		c3.24,0,6.27-1.44,8.31-3.88c0.4-0.48,0.29-1.2-0.22-1.54l-0.45-0.3C467.58,36.89,467.28,36.8,466.98,36.8z"/>
	<path class="st1" d="M312.52,36.8h-10.78c-1.58,0-2.87-1.29-2.87-2.87v-3.9c0-1.58,1.29-2.87,2.87-2.87h10.52
		c0.31,0,0.61-0.09,0.86-0.27l1.19-0.81c0.21-0.15,0.27-0.45,0.11-0.66c-2.05-2.73-5.26-4.35-8.69-4.35h-1.96
		c-1.47,0-2.89,0.29-4.23,0.85c-1.29,0.55-2.45,1.34-3.45,2.33c-0.99,0.99-1.78,2.15-2.33,3.45c-0.56,1.34-0.85,2.75-0.85,4.23
		c0,1.46,0.29,2.88,0.85,4.23c0.55,1.28,1.34,2.45,2.33,3.45c0.99,0.99,2.15,1.77,3.45,2.32c1.34,0.57,2.75,0.86,4.23,0.86h1.96
		c3.47,0,6.7-1.65,8.74-4.42c0.15-0.21,0.09-0.51-0.12-0.65l-0.97-0.66C313.12,36.89,312.82,36.8,312.52,36.8z"/>
	<path class="st1" d="M398.36,21.8v11.87c0,0.1-0.02,0.19-0.06,0.28l-2.55,6.08c-0.1,0.24-0.06,0.52,0.1,0.73l1.42,1.77
		c0.14,0.17,0.34,0.27,0.56,0.27h6.09c0.4,0,0.72-0.32,0.72-0.72V21.8c0-0.4-0.32-0.72-0.72-0.72h-4.84
		C398.68,21.08,398.36,21.4,398.36,21.8z M387.78,21.07h-6.09c-0.4,0-0.72,0.32-0.72,0.72v20.26c0,0.4,0.32,0.72,0.72,0.72h4.85
		c0.4,0,0.72-0.32,0.72-0.72V32.1c0-0.68,0.86-0.98,1.28-0.45l3.53,4.41c0.33,0.42,0.99,0.34,1.22-0.15l2.28-4.92
		c0.12-0.25,0.08-0.54-0.09-0.76l-7.15-8.9C388.21,21.17,388,21.07,387.78,21.07z"/>
	<path class="st1" d="M567.65,21.8v11.87c0,0.1-0.02,0.19-0.06,0.28l-2.55,6.08c-0.1,0.24-0.06,0.52,0.1,0.73l1.42,1.77
		c0.14,0.17,0.34,0.27,0.56,0.27h6.09c0.4,0,0.72-0.32,0.72-0.72V21.8c0-0.4-0.32-0.72-0.72-0.72h-4.84
		C567.98,21.08,567.65,21.4,567.65,21.8z M557.08,21.07h-6.09c-0.4,0-0.72,0.32-0.72,0.72v20.26c0,0.4,0.32,0.72,0.72,0.72h4.85
		c0.4,0,0.72-0.32,0.72-0.72V32.1c0-0.68,0.86-0.98,1.28-0.45l3.53,4.41c0.33,0.42,0.99,0.34,1.22-0.15l2.28-4.92
		c0.12-0.25,0.08-0.54-0.09-0.76l-7.15-8.9C557.5,21.17,557.3,21.07,557.08,21.07z"/>
	<path class="st1" d="M282.67,21.06h-4.61c-0.32,0-0.61,0.18-0.75,0.46l-9.93,20.08c-0.27,0.55,0.13,1.2,0.75,1.2h5.17
		c0.32,0,0.61-0.18,0.75-0.46l1.54-3.11v0l9.1,0.07c0.31,0,0.6,0.18,0.74,0.46l1.27,2.58c0.14,0.28,0.43,0.46,0.75,0.46h5.17
		c0.62,0,1.02-0.65,0.75-1.2l-9.93-20.08C283.27,21.24,282.98,21.06,282.67,21.06z M285.18,33.24c0,1.32-1.07,2.4-2.4,2.4h-4.83
		c-1.32,0-2.4-1.07-2.4-2.4v-2.52c0-1.32,1.07-2.4,2.4-2.4h4.83c1.32,0,2.4,1.07,2.4,2.4V33.24z"/>
	<path class="st1" d="M493.67,35.07c-0.23-0.5-0.51-0.96-0.85-1.39c0.32-0.46,0.59-0.95,0.81-1.47c0.42-1,0.63-2.05,0.63-3.14
		c0-1.09-0.21-2.14-0.63-3.14c-0.41-0.96-0.99-1.82-1.73-2.56c-0.74-0.74-1.6-1.32-2.56-1.73c-1-0.42-2.05-0.63-3.14-0.63h-7.23v0
		l-0.31,0h-1.79c-0.04,0-0.09,0-0.13,0l-4.07,0l0,4c0,0.06,0,0.13,0,0.19v7.73c0,0.11,0.01,0.23,0.01,0.34l0.01,9.49l6.29-0.01
		L479,37.13h7.91c0.66,0,1.08,0.45,1.08,0.76v4.86h6.29v-4.86C494.29,36.92,494.08,35.97,493.67,35.07z M488.3,31.57
		c0,0.87-0.7,1.57-1.57,1.57h-6.49c-0.87,0-1.57-0.7-1.57-1.57v-4.18c0-0.87,0.7-1.57,1.57-1.57h6.49c0.87,0,1.57,0.7,1.57,1.57
		V31.57z"/>
	<path class="st1" d="M238.28,35.07c-0.23-0.5-0.51-0.96-0.85-1.39c0.32-0.46,0.59-0.95,0.81-1.47c0.42-1,0.63-2.05,0.63-3.14
		c0-1.09-0.21-2.14-0.63-3.14c-0.41-0.96-0.99-1.82-1.73-2.56c-1.18-1.18-2.68-1.96-4.39-2.27c-0.45-0.08-0.91-0.09-1.37-0.09
		l-7.16,0v0l-0.31,0h-1.79c-0.04,0-0.09,0-0.13,0l-3.47,0c-0.33,0-0.6,0.27-0.6,0.6l0,3.4c0,0.06,0,0.13,0,0.19v7.73
		c0,0.11,0,0.23,0.01,0.34l0.01,8.9c0,0.33,0.27,0.6,0.6,0.6l5.1-0.01c0.33,0,0.6-0.27,0.6-0.6l0-4.44c0-0.33,0.27-0.6,0.6-0.6h7.32
		c0.66,0,1.08,0.45,1.08,0.76v4.27c0,0.33,0.27,0.6,0.6,0.6h5.1c0.33,0,0.6-0.27,0.6-0.6v-4.27
		C238.9,36.92,238.69,35.97,238.28,35.07z M232.91,31.05c0,1.19-0.97,2.16-2.16,2.16h-5.3c-1.19,0-2.16-0.97-2.16-2.16v-2.99
		c0-1.19,0.97-2.16,2.16-2.16h5.3c1.19,0,2.16,0.97,2.16,2.16V31.05z"/>
	<path class="st1" d="M146.19,35.07c-0.23-0.5-0.51-0.96-0.85-1.39c0.32-0.46,0.59-0.95,0.81-1.47c0.42-1,0.63-2.05,0.63-3.14
		c0-1.09-0.21-2.14-0.63-3.14c-0.41-0.96-0.99-1.82-1.73-2.56c-1.18-1.18-2.68-1.96-4.39-2.27c-0.45-0.08-0.91-0.09-1.37-0.09
		l-7.16,0v0l-0.31,0h-1.79c-0.04,0-0.09,0-0.13,0l-3.47,0c-0.33,0-0.6,0.27-0.6,0.6l0,3.4c0,0.06,0,0.13,0,0.19v7.73
		c0,0.11,0,0.23,0.01,0.34l0.01,8.9c0,0.33,0.27,0.6,0.6,0.6l5.1-0.01c0.33,0,0.6-0.27,0.6-0.6l0-4.44c0-0.33,0.27-0.6,0.6-0.6h7.32
		c0.66,0,1.08,0.45,1.08,0.76v4.27c0,0.33,0.27,0.6,0.6,0.6h5.1c0.33,0,0.6-0.27,0.6-0.6v-4.27
		C146.8,36.92,146.6,35.97,146.19,35.07z M140.81,31.05c0,1.19-0.97,2.16-2.16,2.16h-5.3c-1.19,0-2.16-0.97-2.16-2.16v-2.99
		c0-1.19,0.97-2.16,2.16-2.16h5.3c1.19,0,2.16,0.97,2.16,2.16V31.05z"/>
	<g>
		<path class="st1" d="M443.28,31.23c-0.68-0.67-1.5-1.2-2.39-1.55c-0.33-0.13-0.68,0.1-0.68,0.45v4.06c0,1.43-1.17,2.6-2.6,2.6
			h-8.49c-0.71,0-1.34-0.35-1.72-0.89c-0.1-0.14-0.24-0.23-0.41-0.23l-5.44-0.01v0.31c0,1.71,0.68,3.35,1.94,4.6
			c1,1,2.28,1.68,3.79,2.01c0.48,0.1,0.98,0.13,1.47,0.13l9.32,0c1.85,0,3.61-0.65,4.95-1.83c0.85-0.75,1.46-1.66,1.86-2.69
			c0.28-0.73,0.38-1.51,0.38-2.29v-0.03C445.26,34.13,444.56,32.48,443.28,31.23z"/>
		<path class="st1" d="M427,33.68v-3.91c0-1.44,1.17-2.6,2.6-2.6h8.5c0.64,0,1.22,0.29,1.6,0.74c0.1,0.11,0.23,0.19,0.38,0.19
			l5.17,0.02v-0.29c0.01-1.72-0.67-3.37-1.93-4.62c-0.67-0.67-1.48-1.2-2.38-1.57c-0.91-0.37-1.88-0.56-2.89-0.56h-9.31
			c-1.85,0-3.6,0.65-4.95,1.83c-0.68,0.61-1.23,1.34-1.63,2.14c-0.41,0.87-0.62,1.79-0.62,2.74c0,1.74,0.7,3.39,1.98,4.65
			c0.8,0.78,1.78,1.37,2.86,1.71C426.69,34.25,427,34,427,33.68z"/>
		<path class="st1" d="M429,34.32h8.41c0.27,0,0.49-0.22,0.49-0.49v-3.89c0-0.27-0.22-0.49-0.49-0.49h-4.77
			c-2.15,0-3.91,1.91-4.13,4.35C428.48,34.08,428.72,34.32,429,34.32z"/>
	</g>
	<path class="st1" d="M254.59,36.34h-4.68c-0.74,0-1.34-0.6-1.34-1.34v-6.58c0-0.74,0.6-1.34,1.34-1.34h5.91
		c0.73,0,1.32,0.6,1.31,1.33l0,0.16l-0.15,0c-3.46,0-6.27,2.79-6.3,6.24c0,0.03,0.02,0.05,0.05,0.05l6.14,0
		c3.59,0,6.52-2.89,6.56-6.48v0c0-1.02-0.2-2.02-0.6-2.96c-0.38-0.9-0.93-1.72-1.63-2.41c-1.13-1.13-2.56-1.87-4.2-2.14
		c-0.4-0.07-0.81-0.08-1.21-0.08h-5.87c-0.41,0-0.81,0.01-1.21,0.08c-1.64,0.28-3.07,1.01-4.2,2.14c-1.12,1.12-1.86,2.54-2.14,4.17
		c-0.07,0.4-0.08,0.81-0.08,1.21v6.64c0,0.41,0.01,0.82,0.08,1.22c0.28,1.63,1.02,3.05,2.14,4.17c1.12,1.12,2.54,1.86,4.17,2.14
		c0.4,0.07,0.81,0.08,1.22,0.08l5.95,0h5.92c0.92,0,1.67-0.75,1.67-1.67v-2.95c0-0.92-0.75-1.67-1.67-1.67h-5.92H254.59z"/>
	<path class="st1" d="M511.25,36.34h-4.68c-0.74,0-1.34-0.6-1.34-1.34v-6.58c0-0.74,0.6-1.34,1.34-1.34h5.91
		c0.73,0,1.32,0.6,1.31,1.33l0,0.16l-0.15,0c-3.46,0-6.27,2.79-6.3,6.24c0,0.03,0.02,0.05,0.05,0.05l6.14,0
		c3.59,0,6.52-2.89,6.56-6.48v0c0-1.02-0.2-2.02-0.6-2.96c-0.38-0.9-0.93-1.72-1.63-2.41c-1.13-1.13-2.56-1.87-4.2-2.14
		c-0.4-0.07-0.81-0.08-1.21-0.08h-5.87c-0.41,0-0.81,0.01-1.21,0.08c-1.64,0.28-3.07,1.01-4.2,2.14c-1.12,1.12-1.86,2.54-2.14,4.17
		c-0.07,0.4-0.08,0.81-0.08,1.21v6.64c0,0.41,0.01,0.82,0.08,1.22c0.28,1.63,1.02,3.05,2.14,4.17c1.12,1.12,2.54,1.86,4.17,2.14
		c0.4,0.07,0.81,0.08,1.22,0.08l5.95,0h5.92c0.92,0,1.67-0.75,1.67-1.67v-2.95c0-0.92-0.75-1.67-1.67-1.67h-5.92H511.25z"/>
	<path class="st1" d="M536.92,36.34h-4.68c-0.74,0-1.34-0.6-1.34-1.34v-6.58c0-0.74,0.6-1.34,1.34-1.34h5.91
		c0.73,0,1.32,0.6,1.31,1.33l0,0.16l-0.15,0c-3.46,0-6.27,2.79-6.3,6.24c0,0.03,0.02,0.05,0.05,0.05l6.14,0
		c3.59,0,6.52-2.89,6.56-6.48v0c0-1.02-0.2-2.02-0.6-2.96c-0.38-0.9-0.93-1.72-1.63-2.41c-1.13-1.13-2.56-1.87-4.2-2.14
		c-0.4-0.07-0.81-0.08-1.21-0.08h-5.87c-0.41,0-0.81,0.01-1.21,0.08c-1.64,0.28-3.07,1.01-4.2,2.14c-1.12,1.12-1.86,2.54-2.14,4.17
		c-0.07,0.4-0.08,0.81-0.08,1.21v6.64c0,0.41,0.01,0.82,0.08,1.22c0.28,1.63,1.02,3.05,2.14,4.17c1.12,1.12,2.54,1.86,4.17,2.14
		c0.4,0.07,0.81,0.08,1.22,0.08l5.95,0h5.92c0.92,0,1.67-0.75,1.67-1.67v-2.95c0-0.92-0.75-1.67-1.67-1.67h-5.92H536.92z"/>
	<path class="st1" d="M32.48,28.27v0.1l-0.01,0.04v0.21l-0.02,0.02v-0.18C32.44,28.39,32.45,28.33,32.48,28.27z"/>
	<path class="st1" d="M32.48,28.27v0.1l-0.01,0.04v0.21l-0.02,0.02v-0.18C32.44,28.39,32.45,28.33,32.48,28.27z"/>
	<g>
		<path class="st1" d="M41.74,29.95v0.07l-0.01,0.03v0.13l-0.01,0.01v-0.11C41.72,30.03,41.73,29.99,41.74,29.95z"/>
		<path class="st1" d="M45.92,28.7l-0.01,0.04l-0.09,6.51v1.14c0,1.47-1.19,2.67-2.67,2.67h-2.96c-0.78,0-1.47-0.37-1.92-0.93
			c-0.33-0.41-0.53-0.95-0.53-1.51v-6.61c-0.01-0.45-0.37-0.81-0.83-0.81h-3.78c-0.45,0-0.82,0.37-0.82,0.82v4.23
			c0,0.45,0.37,0.82,0.82,0.82h2.38c0.32,0,0.58,0.26,0.58,0.58v2.82c0,0.32-0.26,0.58-0.58,0.58h-2.38c-0.39,0-0.79-0.04-1.17-0.14
			c-0.85-0.22-1.62-0.65-2.23-1.27c-0.44-0.44-0.79-0.95-1.03-1.52c-0.25-0.6-0.38-1.23-0.38-1.88v-4.23c0-0.65,0.13-1.28,0.38-1.87
			c0.24-0.58,0.59-1.09,1.03-1.53c0.44-0.45,0.96-0.79,1.53-1.03c0.6-0.26,1.23-0.38,1.87-0.38h3.62c0.68,0,1.36,0.1,1.98,0.35
			c0.6,0.24,1.13,0.6,1.59,1.06c0.33,0.33,0.6,0.69,0.82,1.1c0,0.01,0.01,0.01,0.01,0.01c0.56,1.16,0.56,2.46,0.56,2.46v5.93
			c0,0.55,0.44,0.98,0.98,0.98c0.14,0,0.28-0.03,0.39-0.09c0,0,0.58-0.12,0.58-0.98v-5.69c0.12-1.68-0.24-2.68-0.24-2.68l-0.02-0.01
			c-0.07-0.22-0.14-0.43-0.24-0.65c-0.32-0.75-0.76-1.41-1.33-1.98c-0.67-0.68-1.47-1.16-2.36-1.48c-0.66-0.24-1.37-0.33-2.07-0.33
			l-4.76,0c-0.81,0-1.63,0.13-2.38,0.45c-0.77,0.32-1.48,0.77-2.06,1.37c-0.56,0.57-1.02,1.23-1.33,1.98
			c-0.32,0.76-0.49,1.56-0.49,2.4v5.45c0,0.84,0.17,1.64,0.49,2.42c0.31,0.74,0.76,1.39,1.33,1.96c0.58,0.6,1.29,1.06,2.06,1.37
			c0.75,0.31,1.57,0.44,2.39,0.44l7.79,0c0.18,0,0.32,0.14,0.32,0.32v1.69c0,0.18-0.14,0.32-0.32,0.32l-8.47,0
			c-0.63,0-1.26-0.06-1.87-0.21c-1.4-0.35-2.66-1.06-3.67-2.08c-0.72-0.72-1.28-1.54-1.67-2.48c-0.4-0.97-0.62-1.99-0.62-3.05V28.7
			c0-1.06,0.22-2.08,0.62-3.04c0.39-0.94,0.96-1.77,1.67-2.48c0.72-0.72,1.56-1.27,2.48-1.67c0.97-0.42,1.99-0.62,3.03-0.62l5.87,0
			c1.09,0,2.19,0.16,3.21,0.58c0.97,0.4,1.84,0.96,2.6,1.72c0.72,0.72,1.28,1.54,1.67,2.48C45.7,26.62,45.92,27.64,45.92,28.7z"/>
	</g>
	<circle class="st2" cx="374.82" cy="31.93" r="3.08"/>
	<path class="st2" d="M119.26,36.8h-11.7c-1.33,0-2.41-1.09-2.41-2.41v-4.82c0-1.33,1.09-2.41,2.41-2.41H119l1.97-1.35
		c-2.03-2.96-5.37-4.73-8.97-4.73h-1.96c-1.47,0-2.89,0.29-4.23,0.85c-1.29,0.55-2.45,1.34-3.45,2.33
		c-0.99,0.99-1.78,2.15-2.33,3.45c-0.56,1.34-0.85,2.75-0.85,4.23c0,1.46,0.29,2.88,0.85,4.23c0.55,1.28,1.34,2.45,2.33,3.45
		c0.99,0.99,2.15,1.77,3.45,2.32c1.34,0.57,2.75,0.86,4.23,0.86H112c3.62,0,6.99-1.8,9.01-4.81L119.26,36.8z"/>
	<circle class="st2" cx="119.11" cy="31.93" r="3.08"/>
</g>
</svg>
