<svg width="400" height="400" viewBox="0 0 400 400" fill="none" xmlns="http://www.w3.org/2000/svg">
<path d="M163.496 184.813H117.664V247.701H120.529V244.842H123.395V247.701H120.529V250.561H123.395V253.42H126.26V250.561H129.125V247.701H126.26V244.842H129.125V247.701H131.99V244.842H134.855V247.701H131.99V250.561H134.855V253.42H137.721V250.561H140.586V247.701H137.721V244.842H140.586V247.701H143.451V244.842H146.316V247.701H143.451V250.561H146.316V253.42H149.182V250.561H152.047V247.701H149.182V244.842H152.047V247.701H154.912V244.842H157.777V247.701H154.912V250.561H157.777V253.42H160.643V250.561H163.508V247.701H160.643V244.842H163.508V247.701H166.373V244.842H169.238V236.264H166.373V233.404H169.238V230.545H166.373V227.686H169.238V184.807H163.508L163.496 184.813ZM123.395 236.27H120.529V233.41H123.395V236.27ZM123.395 230.551H120.529V227.691H123.395V230.551ZM129.125 241.988H126.26V239.129H129.125V241.988ZM129.125 224.832H126.26V221.973H129.125V224.832ZM134.85 236.27H131.984V233.41H134.85V236.27ZM134.85 230.551H131.984V227.691H134.85V230.551ZM140.58 241.988H137.715V239.129H140.58V241.988ZM140.58 224.832H137.715V221.973H140.58V224.832ZM146.311 236.27H143.445V233.41H146.311V236.27ZM146.311 230.551H143.445V227.691H146.311V230.551ZM152.041 241.988H149.176V239.129H152.041V241.988ZM152.041 224.832H149.176V221.973H152.041V224.832ZM157.766 236.27H154.9V233.41H157.766V236.27ZM157.766 230.551H154.9V227.691H157.766V230.551ZM163.496 241.988H160.631V239.129H163.496V241.988ZM163.496 224.832H160.631V221.973H163.496V224.832Z" fill="#0CC161"/>
<path d="M169.227 247.701H166.361V250.561H169.227V247.701Z" fill="#0CC161"/>
<path d="M163.496 253.42H160.631V256.279H163.496V259.139H166.361V256.279H169.227V253.42H166.361V250.561H163.496V253.42Z" fill="#0CC161"/>
<path d="M123.395 256.279V253.42H120.529V250.561H117.664V253.42V256.279V259.139H120.529V256.279H123.395Z" fill="#0CC161"/>
<path d="M129.125 256.279V259.139H131.984V256.279H134.85V253.42H131.984V250.561H129.125V253.42H126.26V256.279H129.125Z" fill="#0CC161"/>
<path d="M140.58 256.279V259.139H143.445V256.279H146.311V253.42H143.445V250.561H140.58V253.42H137.715V256.279H140.58Z" fill="#0CC161"/>
<path d="M152.041 256.279V259.139H154.906V256.279H157.766V253.42H154.906V250.561H152.041V253.42H149.176V256.279H152.041Z" fill="#0CC161"/>
<path d="M126.26 256.279H123.395V259.139H126.26V256.279Z" fill="#0CC161"/>
<path d="M137.715 256.279H134.85V259.139H137.715V256.279Z" fill="#0CC161"/>
<path d="M149.176 256.279H146.311V259.139H149.176V256.279Z" fill="#0CC161"/>
<path d="M160.631 256.279H157.766V259.139H160.631V256.279Z" fill="#0CC161"/>
<path d="M123.395 259.139H120.529V261.998H123.395V259.139Z" fill="#0CC161"/>
<path d="M129.125 259.139H126.26V261.998H129.125V259.139Z" fill="#0CC161"/>
<path d="M134.85 259.139H131.984V261.998H134.85V259.139Z" fill="#0CC161"/>
<path d="M140.58 259.139H137.715V261.998H140.58V259.139Z" fill="#0CC161"/>
<path d="M146.311 259.139H143.445V261.998H146.311V259.139Z" fill="#0CC161"/>
<path d="M152.041 259.139H149.176V261.998H152.041V259.139Z" fill="#0CC161"/>
<path d="M157.771 259.139H154.906V261.998H157.771V259.139Z" fill="#0CC161"/>
<path d="M163.496 259.139H160.631V261.998H163.496V259.139Z" fill="#0CC161"/>
<path d="M169.227 259.139H166.361V261.998H169.227V259.139Z" fill="#0CC161"/>
<path d="M120.529 261.998H117.664V264.857H120.529V261.998Z" fill="#0CC161"/>
<path d="M126.26 261.998H123.395V264.857H126.26V261.998Z" fill="#0CC161"/>
<path d="M131.99 261.998H129.125V264.857H131.99V261.998Z" fill="#0CC161"/>
<path d="M137.715 261.998H134.85V264.857H137.715V261.998Z" fill="#0CC161"/>
<path d="M143.445 261.998H140.58V264.857H143.445V261.998Z" fill="#0CC161"/>
<path d="M149.176 261.998H146.311V264.857H149.176V261.998Z" fill="#0CC161"/>
<path d="M154.906 261.998H152.041V264.857H154.906V261.998Z" fill="#0CC161"/>
<path d="M160.631 261.998H157.766V264.857H160.631V261.998Z" fill="#0CC161"/>
<path d="M166.361 261.998H163.496V264.857H166.361V261.998Z" fill="#0CC161"/>
<path d="M123.395 264.857H120.529V267.717H123.395V264.857Z" fill="#0CC161"/>
<path d="M129.125 264.857H126.26V267.717H129.125V264.857Z" fill="#0CC161"/>
<path d="M134.85 264.857H131.984V267.717H134.85V264.857Z" fill="#0CC161"/>
<path d="M140.58 264.857H137.715V267.717H140.58V264.857Z" fill="#0CC161"/>
<path d="M146.311 264.857H143.445V267.717H146.311V264.857Z" fill="#0CC161"/>
<path d="M152.041 264.857H149.176V267.717H152.041V264.857Z" fill="#0CC161"/>
<path d="M157.771 264.857H154.906V267.717H157.771V264.857Z" fill="#0CC161"/>
<path d="M163.496 264.857H160.631V267.717H163.496V264.857Z" fill="#0CC161"/>
<path d="M169.227 264.857H166.361V267.717H169.227V264.857Z" fill="#0CC161"/>
<path d="M126.26 267.711H123.395V270.57H126.26V267.711Z" fill="#0CC161"/>
<path d="M137.715 267.711H134.85V270.57H137.715V267.711Z" fill="#0CC161"/>
<path d="M149.176 267.711H146.311V270.57H149.176V267.711Z" fill="#0CC161"/>
<path d="M160.631 267.711H157.766V270.57H160.631V267.711Z" fill="#0CC161"/>
<path d="M123.395 270.57H120.529V273.43H123.395V270.57Z" fill="#0CC161"/>
<path d="M129.125 270.57H126.26V273.43H129.125V270.57Z" fill="#0CC161"/>
<path d="M134.85 270.57H131.984V273.43H134.85V270.57Z" fill="#0CC161"/>
<path d="M140.58 270.57H137.715V273.43H140.58V270.57Z" fill="#0CC161"/>
<path d="M146.311 270.57H143.445V273.43H146.311V270.57Z" fill="#0CC161"/>
<path d="M152.041 270.57H149.176V273.43H152.041V270.57Z" fill="#0CC161"/>
<path d="M157.771 270.57H154.906V273.43H157.771V270.57Z" fill="#0CC161"/>
<path d="M163.496 270.57H160.631V273.43H163.496V270.57Z" fill="#0CC161"/>
<path d="M169.227 270.57H166.361V273.43H169.227V270.57Z" fill="#0CC161"/>
<path d="M123.395 276.289H120.529V279.148H123.395V276.289Z" fill="#0CC161"/>
<path d="M129.125 276.289H126.26V279.148H129.125V276.289Z" fill="#0CC161"/>
<path d="M134.85 276.289H131.984V279.148H134.85V276.289Z" fill="#0CC161"/>
<path d="M140.58 276.289H137.715V279.148H140.58V276.289Z" fill="#0CC161"/>
<path d="M146.311 276.289H143.445V279.148H146.311V276.289Z" fill="#0CC161"/>
<path d="M152.041 276.289H149.176V279.148H152.041V276.289Z" fill="#0CC161"/>
<path d="M157.771 276.289H154.906V279.148H157.771V276.289Z" fill="#0CC161"/>
<path d="M163.496 276.289H160.631V279.148H163.496V276.289Z" fill="#0CC161"/>
<path d="M169.227 276.289H166.361V279.148H169.227V276.289Z" fill="#0CC161"/>
<path d="M277.168 184.813H231.336V247.701H234.201V244.842H237.066V247.701H234.201V250.561H237.066V253.42H239.932V250.561H242.797V247.701H239.932V244.842H242.797V247.701H245.662V244.842H248.527V247.701H245.662V250.561H248.527V253.42H251.393V250.561H254.258V247.701H251.393V244.842H254.258V247.701H257.123V244.842H259.988V247.701H257.123V250.561H259.988V253.42H262.854V250.561H265.719V247.701H262.854V244.842H265.719V247.701H268.584V244.842H271.449V247.701H268.584V250.561H271.449V253.42H274.314V250.561H277.18V247.701H274.314V244.842H277.18V247.701H280.045V244.842H282.91V236.264H280.045V233.404H282.91V230.545H280.045V227.686H282.91V184.807H277.18L277.168 184.813ZM237.066 236.27H234.201V233.41H237.066V236.27ZM237.066 230.551H234.201V227.691H237.066V230.551ZM242.797 241.988H239.932V239.129H242.797V241.988ZM242.797 224.832H239.932V221.973H242.797V224.832ZM248.521 236.27H245.656V233.41H248.521V236.27ZM248.521 230.551H245.656V227.691H248.521V230.551ZM254.252 241.988H251.387V239.129H254.252V241.988ZM254.252 224.832H251.387V221.973H254.252V224.832ZM259.982 236.27H257.117V233.41H259.982V236.27ZM259.982 230.551H257.117V227.691H259.982V230.551ZM265.713 241.988H262.848V239.129H265.713V241.988ZM265.713 224.832H262.848V221.973H265.713V224.832ZM271.438 236.27H268.572V233.41H271.438V236.27ZM271.438 230.551H268.572V227.691H271.438V230.551ZM277.168 241.988H274.303V239.129H277.168V241.988ZM277.168 224.832H274.303V221.973H277.168V224.832Z" fill="#0CC161"/>
<path d="M282.898 247.701H280.033V250.561H282.898V247.701Z" fill="#0CC161"/>
<path d="M277.168 253.42H274.303V256.279H277.168V259.139H280.033V256.279H282.899V253.42H280.033V250.561H277.168V253.42Z" fill="#0CC161"/>
<path d="M237.066 256.279V253.42H234.201V250.561H231.336V253.42V256.279V259.139H234.201V256.279H237.066Z" fill="#0CC161"/>
<path d="M242.797 256.279V259.139H245.656V256.279H248.521V253.42H245.656V250.561H242.797V253.42H239.932V256.279H242.797Z" fill="#0CC161"/>
<path d="M254.252 256.279V259.139H257.117V256.279H259.982V253.42H257.117V250.561H254.252V253.42H251.387V256.279H254.252Z" fill="#0CC161"/>
<path d="M265.713 256.279V259.139H268.578V256.279H271.438V253.42H268.578V250.561H265.713V253.42H262.848V256.279H265.713Z" fill="#0CC161"/>
<path d="M239.932 256.279H237.066V259.139H239.932V256.279Z" fill="#0CC161"/>
<path d="M251.387 256.279H248.521V259.139H251.387V256.279Z" fill="#0CC161"/>
<path d="M262.848 256.279H259.982V259.139H262.848V256.279Z" fill="#0CC161"/>
<path d="M274.303 256.279H271.438V259.139H274.303V256.279Z" fill="#0CC161"/>
<path d="M237.066 259.139H234.201V261.998H237.066V259.139Z" fill="#0CC161"/>
<path d="M242.797 259.139H239.932V261.998H242.797V259.139Z" fill="#0CC161"/>
<path d="M248.521 259.139H245.656V261.998H248.521V259.139Z" fill="#0CC161"/>
<path d="M254.252 259.139H251.387V261.998H254.252V259.139Z" fill="#0CC161"/>
<path d="M259.982 259.139H257.117V261.998H259.982V259.139Z" fill="#0CC161"/>
<path d="M265.713 259.139H262.848V261.998H265.713V259.139Z" fill="#0CC161"/>
<path d="M271.443 259.139H268.578V261.998H271.443V259.139Z" fill="#0CC161"/>
<path d="M277.168 259.139H274.303V261.998H277.168V259.139Z" fill="#0CC161"/>
<path d="M282.898 259.139H280.033V261.998H282.898V259.139Z" fill="#0CC161"/>
<path d="M234.201 261.998H231.336V264.857H234.201V261.998Z" fill="#0CC161"/>
<path d="M239.932 261.998H237.066V264.857H239.932V261.998Z" fill="#0CC161"/>
<path d="M245.662 261.998H242.797V264.857H245.662V261.998Z" fill="#0CC161"/>
<path d="M251.387 261.998H248.521V264.857H251.387V261.998Z" fill="#0CC161"/>
<path d="M257.117 261.998H254.252V264.857H257.117V261.998Z" fill="#0CC161"/>
<path d="M262.848 261.998H259.982V264.857H262.848V261.998Z" fill="#0CC161"/>
<path d="M268.578 261.998H265.713V264.857H268.578V261.998Z" fill="#0CC161"/>
<path d="M274.303 261.998H271.438V264.857H274.303V261.998Z" fill="#0CC161"/>
<path d="M280.033 261.998H277.168V264.857H280.033V261.998Z" fill="#0CC161"/>
<path d="M237.066 264.857H234.201V267.717H237.066V264.857Z" fill="#0CC161"/>
<path d="M242.797 264.857H239.932V267.717H242.797V264.857Z" fill="#0CC161"/>
<path d="M248.521 264.857H245.656V267.717H248.521V264.857Z" fill="#0CC161"/>
<path d="M254.252 264.857H251.387V267.717H254.252V264.857Z" fill="#0CC161"/>
<path d="M259.982 264.857H257.117V267.717H259.982V264.857Z" fill="#0CC161"/>
<path d="M265.713 264.857H262.848V267.717H265.713V264.857Z" fill="#0CC161"/>
<path d="M271.443 264.857H268.578V267.717H271.443V264.857Z" fill="#0CC161"/>
<path d="M277.168 264.857H274.303V267.717H277.168V264.857Z" fill="#0CC161"/>
<path d="M282.898 264.857H280.033V267.717H282.898V264.857Z" fill="#0CC161"/>
<path d="M239.932 267.711H237.066V270.57H239.932V267.711Z" fill="#0CC161"/>
<path d="M251.387 267.711H248.521V270.57H251.387V267.711Z" fill="#0CC161"/>
<path d="M262.848 267.711H259.982V270.57H262.848V267.711Z" fill="#0CC161"/>
<path d="M274.303 267.711H271.438V270.57H274.303V267.711Z" fill="#0CC161"/>
<path d="M237.066 270.57H234.201V273.43H237.066V270.57Z" fill="#0CC161"/>
<path d="M242.797 270.57H239.932V273.43H242.797V270.57Z" fill="#0CC161"/>
<path d="M248.521 270.57H245.656V273.43H248.521V270.57Z" fill="#0CC161"/>
<path d="M254.252 270.57H251.387V273.43H254.252V270.57Z" fill="#0CC161"/>
<path d="M259.982 270.57H257.117V273.43H259.982V270.57Z" fill="#0CC161"/>
<path d="M265.713 270.57H262.848V273.43H265.713V270.57Z" fill="#0CC161"/>
<path d="M271.443 270.57H268.578V273.43H271.443V270.57Z" fill="#0CC161"/>
<path d="M277.168 270.57H274.303V273.43H277.168V270.57Z" fill="#0CC161"/>
<path d="M282.898 270.57H280.033V273.43H282.898V270.57Z" fill="#0CC161"/>
<path d="M237.066 276.289H234.201V279.148H237.066V276.289Z" fill="#0CC161"/>
<path d="M242.797 276.289H239.932V279.148H242.797V276.289Z" fill="#0CC161"/>
<path d="M248.521 276.289H245.656V279.148H248.521V276.289Z" fill="#0CC161"/>
<path d="M254.252 276.289H251.387V279.148H254.252V276.289Z" fill="#0CC161"/>
<path d="M259.982 276.289H257.117V279.148H259.982V276.289Z" fill="#0CC161"/>
<path d="M265.713 276.289H262.848V279.148H265.713V276.289Z" fill="#0CC161"/>
<path d="M271.443 276.289H268.578V279.148H271.443V276.289Z" fill="#0CC161"/>
<path d="M277.168 276.289H274.303V279.148H277.168V276.289Z" fill="#0CC161"/>
<path d="M282.898 276.289H280.033V279.148H282.898V276.289Z" fill="#0CC161"/>
<path d="M220.332 206.492H174.5V295.297H177.365V292.432H180.23V295.297H177.365V298.162H180.23V301.027H183.096V298.162H185.961V295.297H183.096V292.432H185.961V295.297H188.826V292.432H191.691V295.297H188.826V298.162H191.691V301.027H194.557V298.162H197.422V295.297H194.557V292.432H197.422V295.297H200.287V292.432H203.152V295.297H200.287V298.162H203.152V301.027H206.018V298.162H208.883V295.297H206.018V292.432H208.883V295.297H211.748V292.432H214.613V295.297H211.748V298.162H214.613V301.027H217.479V298.162H220.344V295.297H217.479V292.432H220.344V295.297H223.209V292.432H226.074V283.836H223.209V280.971H226.074V278.105H223.209V275.24H226.074V260.92H223.209V258.055H226.074V206.492H220.344H220.332ZM180.23 283.836H177.365V280.971H180.23V283.836ZM180.23 278.105H177.365V275.24H180.23V278.105ZM180.23 260.92H177.365V258.055H180.23V260.92ZM185.961 289.566H183.096V286.701H185.961V289.566ZM185.961 283.836H183.096V280.971H185.961V283.836ZM185.961 272.375H183.096V269.51H185.961V272.375ZM185.961 249.459H183.096V246.594H185.961V249.459ZM191.686 283.836H188.82V280.971H191.686V283.836ZM191.686 278.105H188.82V275.24H191.686V278.105ZM191.686 260.92H188.82V258.055H191.686V260.92ZM197.416 289.566H194.551V286.701H197.416V289.566ZM197.416 283.836H194.551V280.971H197.416V283.836ZM197.416 272.375H194.551V269.51H197.416V272.375ZM197.416 249.459H194.551V246.594H197.416V249.459ZM203.146 283.836H200.281V280.971H203.146V283.836ZM203.146 278.105H200.281V275.24H203.146V278.105ZM203.146 260.92H200.281V258.055H203.146V260.92ZM208.877 289.566H206.012V286.701H208.877V289.566ZM208.877 283.836H206.012V280.971H208.877V283.836ZM208.877 272.375H206.012V269.51H208.877V272.375ZM208.877 249.459H206.012V246.594H208.877V249.459ZM214.602 283.836H211.736V280.971H214.602V283.836ZM214.602 278.105H211.736V275.24H214.602V278.105ZM214.602 260.92H211.736V258.055H214.602V260.92ZM220.332 289.566H217.467V286.701H220.332V289.566ZM220.332 283.836H217.467V280.971H220.332V283.836ZM220.332 272.375H217.467V269.51H220.332V272.375ZM220.332 249.459H217.467V246.594H220.332V249.459Z" fill="#0CC161"/>
<path d="M226.063 295.297H223.197V298.162H226.063V295.297Z" fill="#0CC161"/>
<path d="M220.332 301.021H217.467V303.887H220.332V306.752H217.467V309.617H220.332V312.482H217.467V309.617H214.602V312.482H211.742V315.348H214.602V318.213H217.467V315.348H220.332V318.213H223.197V315.348H226.063V312.482H223.197V309.617H226.063V306.752H223.197V303.887H226.063V301.021H223.197V298.156H220.332V301.021Z" fill="#0CC161"/>
<path d="M185.961 303.887V306.752H183.096V309.617H185.961V312.482H188.82V309.617H191.686V306.752H188.82V303.887H191.686V301.021H188.82V298.156H185.961V301.021H183.096V303.887H185.961Z" fill="#0CC161"/>
<path d="M197.416 303.887V306.752H194.551V309.617H197.416V312.482H200.281V309.617H203.146V306.752H200.281V303.887H203.146V301.021H200.281V298.156H197.416V301.021H194.551V303.887H197.416Z" fill="#0CC161"/>
<path d="M208.877 303.887V306.752H206.012V309.617H208.877V312.482H211.742V309.617H214.602V306.752H211.742V303.887H214.602V301.021H211.742V298.156H208.877V301.021H206.012V303.887H208.877Z" fill="#0CC161"/>
<path d="M183.096 303.887H180.23V306.752H183.096V303.887Z" fill="#0CC161"/>
<path d="M194.551 303.887H191.685V306.752H194.551V303.887Z" fill="#0CC161"/>
<path d="M206.012 303.887H203.146V306.752H206.012V303.887Z" fill="#0CC161"/>
<path d="M217.467 303.887H214.601V306.752H217.467V303.887Z" fill="#0CC161"/>
<path d="M180.23 309.617V306.752H177.365V303.887H180.23V301.021H177.365V298.156H174.5V301.021V303.887V306.752V309.617V312.482H177.365V309.617H180.23Z" fill="#0CC161"/>
<path d="M191.686 315.348V318.213H194.551V315.348H197.416V312.482H194.551V309.617H191.686V312.482H188.82V315.348H191.686Z" fill="#0CC161"/>
<path d="M203.146 315.348V318.213H206.012V315.348H208.877V312.482H206.012V309.617H203.146V312.482H200.281V315.348H203.146Z" fill="#0CC161"/>
<path d="M177.365 315.348H174.5V318.213H177.365V315.348Z" fill="#0CC161"/>
<path d="M180.231 318.213H183.096V315.348H185.961V312.482H183.096V309.617H180.231V312.482H177.365V315.348H180.231V318.213Z" fill="#0CC161"/>
<path d="M188.826 315.348H185.961V318.213H188.826V315.348Z" fill="#0CC161"/>
<path d="M200.281 315.348H197.416V318.213H200.281V315.348Z" fill="#0CC161"/>
<path d="M211.742 315.348H208.877V318.213H211.742V315.348Z" fill="#0CC161"/>
<path d="M180.231 318.213H177.365V321.078H180.231V318.213Z" fill="#0CC161"/>
<path d="M185.961 318.213H183.096V321.078H185.961V318.213Z" fill="#0CC161"/>
<path d="M191.686 318.213H188.82V321.078H191.686V318.213Z" fill="#0CC161"/>
<path d="M197.416 318.213H194.551V321.078H197.416V318.213Z" fill="#0CC161"/>
<path d="M203.146 318.213H200.281V321.078H203.146V318.213Z" fill="#0CC161"/>
<path d="M208.877 318.213H206.012V321.078H208.877V318.213Z" fill="#0CC161"/>
<path d="M214.607 318.213H211.742V321.078H214.607V318.213Z" fill="#0CC161"/>
<path d="M220.332 318.213H217.467V321.078H220.332V318.213Z" fill="#0CC161"/>
<path d="M226.063 318.213H223.197V321.078H226.063V318.213Z" fill="#0CC161"/>
<path d="M177.365 321.078H174.5V323.943H177.365V321.078Z" fill="#0CC161"/>
<path d="M183.096 321.078H180.23V323.943H183.096V321.078Z" fill="#0CC161"/>
<path d="M188.826 321.078H185.961V323.943H188.826V321.078Z" fill="#0CC161"/>
<path d="M194.551 321.078H191.685V323.943H194.551V321.078Z" fill="#0CC161"/>
<path d="M200.281 321.078H197.416V323.943H200.281V321.078Z" fill="#0CC161"/>
<path d="M206.012 321.078H203.146V323.943H206.012V321.078Z" fill="#0CC161"/>
<path d="M211.742 321.078H208.877V323.943H211.742V321.078Z" fill="#0CC161"/>
<path d="M217.467 321.078H214.601V323.943H217.467V321.078Z" fill="#0CC161"/>
<path d="M223.197 321.078H220.332V323.943H223.197V321.078Z" fill="#0CC161"/>
<path d="M180.231 323.937H177.365V326.803H180.231V323.937Z" fill="#0CC161"/>
<path d="M185.961 323.937H183.096V326.803H185.961V323.937Z" fill="#0CC161"/>
<path d="M191.686 323.937H188.82V326.803H191.686V323.937Z" fill="#0CC161"/>
<path d="M197.416 323.937H194.551V326.803H197.416V323.937Z" fill="#0CC161"/>
<path d="M203.146 323.937H200.281V326.803H203.146V323.937Z" fill="#0CC161"/>
<path d="M208.877 323.937H206.012V326.803H208.877V323.937Z" fill="#0CC161"/>
<path d="M214.607 323.937H211.742V326.803H214.607V323.937Z" fill="#0CC161"/>
<path d="M220.332 323.937H217.467V326.803H220.332V323.937Z" fill="#0CC161"/>
<path d="M226.063 323.937H223.197V326.803H226.063V323.937Z" fill="#0CC161"/>
<path d="M177.365 326.803H174.5V329.668H177.365V326.803Z" fill="#0CC161"/>
<path d="M183.096 326.803H180.23V329.668H183.096V326.803Z" fill="#0CC161"/>
<path d="M188.826 326.803H185.961V329.668H188.826V326.803Z" fill="#0CC161"/>
<path d="M194.551 326.803H191.685V329.668H194.551V326.803Z" fill="#0CC161"/>
<path d="M200.281 326.803H197.416V329.668H200.281V326.803Z" fill="#0CC161"/>
<path d="M206.012 326.803H203.146V329.668H206.012V326.803Z" fill="#0CC161"/>
<path d="M211.742 326.803H208.877V329.668H211.742V326.803Z" fill="#0CC161"/>
<path d="M217.467 326.803H214.601V329.668H217.467V326.803Z" fill="#0CC161"/>
<path d="M223.197 326.803H220.332V329.668H223.197V326.803Z" fill="#0CC161"/>
<path d="M180.231 332.533H177.365V335.398H180.231V332.533Z" fill="#0CC161"/>
<path d="M185.961 332.533H183.096V335.398H185.961V332.533Z" fill="#0CC161"/>
<path d="M191.686 332.533H188.82V335.398H191.686V332.533Z" fill="#0CC161"/>
<path d="M197.416 332.533H194.551V335.398H197.416V332.533Z" fill="#0CC161"/>
<path d="M203.146 332.533H200.281V335.398H203.146V332.533Z" fill="#0CC161"/>
<path d="M208.877 332.533H206.012V335.398H208.877V332.533Z" fill="#0CC161"/>
<path d="M214.607 332.533H211.742V335.398H214.607V332.533Z" fill="#0CC161"/>
<path d="M220.332 332.533H217.467V335.398H220.332V332.533Z" fill="#0CC161"/>
<path d="M226.063 332.533H223.197V335.398H226.063V332.533Z" fill="#0CC161"/>
<path d="M332.375 167.234H287.586V203.416H290.387V200.633H293.187V203.416H290.387V206.199H293.187V208.982H295.988V206.199H298.789V203.416H295.988V200.633H298.789V203.416H301.59V200.633H304.391V203.416H301.59V206.199H304.391V208.982H307.191V206.199H309.992V203.416H307.191V200.633H309.992V203.416H312.793V200.633H315.594V203.416H312.793V206.199H315.594V208.982H318.395V206.199H321.195V203.416H318.395V200.633H321.195V203.416H323.996V200.633H326.797V203.416H323.996V206.199H326.797V208.982H329.598V206.199H332.398V203.416H329.598V200.633H332.398V203.416H335.199V200.633H338V192.283H335.199V189.5H338V167.234H332.398H332.375ZM293.187 192.283H290.387V189.5H293.187V192.283ZM298.783 197.85H295.982V195.066H298.783V197.85ZM304.385 192.283H301.584V189.5H304.385V192.283ZM309.98 197.85H307.18V195.066H309.98V197.85ZM315.582 192.283H312.781V189.5H315.582V192.283ZM321.178 197.85H318.377V195.066H321.178V197.85ZM326.779 192.283H323.979V189.5H326.779V192.283ZM332.375 197.85H329.574V195.066H332.375V197.85Z" fill="#0CC161"/>
<path d="M290.387 206.199H287.586V208.982H290.387V206.199Z" fill="#0CC161"/>
<path d="M301.584 206.199H298.783V208.982H301.584V206.199Z" fill="#0CC161"/>
<path d="M312.781 206.199H309.98V208.982H312.781V206.199Z" fill="#0CC161"/>
<path d="M323.978 206.199H321.178V208.982H323.978V206.199Z" fill="#0CC161"/>
<path d="M335.176 206.199H332.375V208.982H335.176V206.199Z" fill="#0CC161"/>
<path d="M293.188 208.982H290.387V211.766H293.188V208.982Z" fill="#0CC161"/>
<path d="M298.783 208.982H295.982V211.766H298.783V208.982Z" fill="#0CC161"/>
<path d="M304.385 208.982H301.584V211.766H304.385V208.982Z" fill="#0CC161"/>
<path d="M309.98 208.982H307.18V211.766H309.98V208.982Z" fill="#0CC161"/>
<path d="M315.582 208.982H312.781V211.766H315.582V208.982Z" fill="#0CC161"/>
<path d="M321.184 208.982H318.383V211.766H321.184V208.982Z" fill="#0CC161"/>
<path d="M326.779 208.982H323.979V211.766H326.779V208.982Z" fill="#0CC161"/>
<path d="M332.381 208.982H329.58V211.766H332.381V208.982Z" fill="#0CC161"/>
<path d="M337.977 208.982H335.176V211.766H337.977V208.982Z" fill="#0CC161"/>
<path d="M290.387 211.766H287.586V214.549H290.387V211.766Z" fill="#0CC161"/>
<path d="M301.584 211.766H298.783V214.549H301.584V211.766Z" fill="#0CC161"/>
<path d="M312.781 211.766H309.98V214.549H312.781V211.766Z" fill="#0CC161"/>
<path d="M323.978 211.766H321.178V214.549H323.978V211.766Z" fill="#0CC161"/>
<path d="M335.176 211.766H332.375V214.549H335.176V211.766Z" fill="#0CC161"/>
<path d="M293.188 214.549H290.387V217.332H293.188V214.549Z" fill="#0CC161"/>
<path d="M298.783 214.549H295.982V217.332H298.783V214.549Z" fill="#0CC161"/>
<path d="M304.385 214.549H301.584V217.332H304.385V214.549Z" fill="#0CC161"/>
<path d="M309.98 214.549H307.18V217.332H309.98V214.549Z" fill="#0CC161"/>
<path d="M315.582 214.549H312.781V217.332H315.582V214.549Z" fill="#0CC161"/>
<path d="M321.184 214.549H318.383V217.332H321.184V214.549Z" fill="#0CC161"/>
<path d="M326.779 214.549H323.979V217.332H326.779V214.549Z" fill="#0CC161"/>
<path d="M332.381 214.549H329.58V217.332H332.381V214.549Z" fill="#0CC161"/>
<path d="M337.977 214.549H335.176V217.332H337.977V214.549Z" fill="#0CC161"/>
<path d="M298.783 220.115H295.982V222.898H298.783V220.115Z" fill="#0CC161"/>
<path d="M309.98 220.115H307.18V222.898H309.98V220.115Z" fill="#0CC161"/>
<path d="M321.184 220.115H318.383V222.898H321.184V220.115Z" fill="#0CC161"/>
<path d="M332.381 220.115H329.58V222.898H332.381V220.115Z" fill="#0CC161"/>
<path d="M106.789 167.234H62V203.416H64.8008V200.633H67.6016V203.416H64.8008V206.199H67.6016V208.982H70.4023V206.199H73.2031V203.416H70.4023V200.633H73.2031V203.416H76.0039V200.633H78.8047V203.416H76.0039V206.199H78.8047V208.982H81.6055V206.199H84.4063V203.416H81.6055V200.633H84.4063V203.416H87.207V200.633H90.0078V203.416H87.207V206.199H90.0078V208.982H92.8086V206.199H95.6094V203.416H92.8086V200.633H95.6094V203.416H98.4102V200.633H101.211V203.416H98.4102V206.199H101.211V208.982H104.012V206.199H106.812V203.416H104.012V200.633H106.812V203.416H109.613V200.633H112.414V192.283H109.613V189.5H112.414V167.234H106.812H106.789ZM67.6016 192.283H64.8008V189.5H67.6016V192.283ZM73.1973 197.85H70.3965V195.066H73.1973V197.85ZM78.7988 192.283H75.998V189.5H78.7988V192.283ZM84.3945 197.85H81.5938V195.066H84.3945V197.85ZM89.9961 192.283H87.1953V189.5H89.9961V192.283ZM95.5918 197.85H92.791V195.066H95.5918V197.85ZM101.193 192.283H98.3926V189.5H101.193V192.283ZM106.789 197.85H103.988V195.066H106.789V197.85Z" fill="#0CC161"/>
<path d="M64.8008 206.199H62V208.982H64.8008V206.199Z" fill="#0CC161"/>
<path d="M75.998 206.199H73.1973V208.982H75.998V206.199Z" fill="#0CC161"/>
<path d="M87.1953 206.199H84.3945V208.982H87.1953V206.199Z" fill="#0CC161"/>
<path d="M98.3926 206.199H95.5918V208.982H98.3926V206.199Z" fill="#0CC161"/>
<path d="M109.59 206.199H106.789V208.982H109.59V206.199Z" fill="#0CC161"/>
<path d="M67.6016 208.982H64.8008V211.766H67.6016V208.982Z" fill="#0CC161"/>
<path d="M73.1973 208.982H70.3965V211.766H73.1973V208.982Z" fill="#0CC161"/>
<path d="M78.7988 208.982H75.998V211.766H78.7988V208.982Z" fill="#0CC161"/>
<path d="M84.3945 208.982H81.5938V211.766H84.3945V208.982Z" fill="#0CC161"/>
<path d="M89.9961 208.982H87.1953V211.766H89.9961V208.982Z" fill="#0CC161"/>
<path d="M95.5977 208.982H92.7969V211.766H95.5977V208.982Z" fill="#0CC161"/>
<path d="M101.193 208.982H98.3926V211.766H101.193V208.982Z" fill="#0CC161"/>
<path d="M106.795 208.982H103.994V211.766H106.795V208.982Z" fill="#0CC161"/>
<path d="M112.391 208.982H109.59V211.766H112.391V208.982Z" fill="#0CC161"/>
<path d="M64.8008 211.766H62V214.549H64.8008V211.766Z" fill="#0CC161"/>
<path d="M75.998 211.766H73.1973V214.549H75.998V211.766Z" fill="#0CC161"/>
<path d="M87.1953 211.766H84.3945V214.549H87.1953V211.766Z" fill="#0CC161"/>
<path d="M98.3926 211.766H95.5918V214.549H98.3926V211.766Z" fill="#0CC161"/>
<path d="M109.59 211.766H106.789V214.549H109.59V211.766Z" fill="#0CC161"/>
<path d="M67.6016 214.549H64.8008V217.332H67.6016V214.549Z" fill="#0CC161"/>
<path d="M73.1973 214.549H70.3965V217.332H73.1973V214.549Z" fill="#0CC161"/>
<path d="M78.7988 214.549H75.998V217.332H78.7988V214.549Z" fill="#0CC161"/>
<path d="M84.3945 214.549H81.5938V217.332H84.3945V214.549Z" fill="#0CC161"/>
<path d="M89.9961 214.549H87.1953V217.332H89.9961V214.549Z" fill="#0CC161"/>
<path d="M95.5977 214.549H92.7969V217.332H95.5977V214.549Z" fill="#0CC161"/>
<path d="M101.193 214.549H98.3926V217.332H101.193V214.549Z" fill="#0CC161"/>
<path d="M106.795 214.549H103.994V217.332H106.795V214.549Z" fill="#0CC161"/>
<path d="M112.391 214.549H109.59V217.332H112.391V214.549Z" fill="#0CC161"/>
<path d="M73.1973 220.115H70.3965V222.898H73.1973V220.115Z" fill="#0CC161"/>
<path d="M84.3945 220.115H81.5938V222.898H84.3945V220.115Z" fill="#0CC161"/>
<path d="M95.5977 220.115H92.7969V222.898H95.5977V220.115Z" fill="#0CC161"/>
<path d="M106.795 220.115H103.994V222.898H106.795V220.115Z" fill="#0CC161"/>
<path d="M166.361 144.436V135.951H160.631V130.297H157.766V124.643H152.035V121.812H149.17V118.982H143.439V116.152H137.709V113.322H117.658V158.568H120.523V155.738H123.389V158.568H120.523V161.398H123.389V164.228H126.254V161.398H129.119V158.568H126.254V155.738H129.119V158.568H131.984V155.738H134.85V158.568H131.984V161.398H134.85V164.228H137.715V161.398H140.58V158.568H137.715V155.738H140.58V158.568H143.445V155.738H146.311V158.568H143.445V161.398H146.311V164.228H149.176V161.398H152.041V158.568H149.176V155.738H152.041V158.568H154.906V155.738H157.772V158.568H154.906V161.398H157.772V164.228H160.637V161.398H163.502V158.568H160.637V155.738H163.502V158.568H166.367V155.738H169.232V147.254H166.367V144.424L166.361 144.436ZM123.395 147.26H120.529V144.43H123.395V147.26ZM129.125 152.92H126.26V150.09H129.125V152.92ZM129.125 135.951H126.26V133.121H129.125V135.951ZM134.85 147.26H131.984V144.43H134.85V147.26ZM140.58 152.92H137.715V150.09H140.58V152.92ZM140.58 135.951H137.715V133.121H140.58V135.951ZM146.311 147.26H143.445V144.43H146.311V147.26ZM152.041 152.92H149.176V150.09H152.041V152.92ZM152.041 135.951H149.176V133.121H152.041V135.951ZM157.766 147.26H154.9V144.43H157.766V147.26ZM163.496 152.92H160.631V150.09H163.496V152.92Z" fill="#2A4158"/>
<path d="M169.227 158.574H166.361V161.404H169.227V158.574Z" fill="#2A4158"/>
<path d="M120.529 161.398H117.664V164.229H120.529V161.398Z" fill="#2A4158"/>
<path d="M131.99 161.398H129.125V164.229H131.99V161.398Z" fill="#2A4158"/>
<path d="M143.445 161.398H140.58V164.229H143.445V161.398Z" fill="#2A4158"/>
<path d="M154.906 161.398H152.041V164.229H154.906V161.398Z" fill="#2A4158"/>
<path d="M166.361 161.398H163.496V164.229H166.361V161.398Z" fill="#2A4158"/>
<path d="M123.395 164.229H120.529V167.059H123.395V164.229Z" fill="#2A4158"/>
<path d="M129.125 164.229H126.26V167.059H129.125V164.229Z" fill="#2A4158"/>
<path d="M134.85 164.229H131.984V167.059H134.85V164.229Z" fill="#2A4158"/>
<path d="M140.58 164.229H137.715V167.059H140.58V164.229Z" fill="#2A4158"/>
<path d="M146.311 164.229H143.445V167.059H146.311V164.229Z" fill="#2A4158"/>
<path d="M152.041 164.229H149.176V167.059H152.041V164.229Z" fill="#2A4158"/>
<path d="M157.771 164.229H154.906V167.059H157.771V164.229Z" fill="#2A4158"/>
<path d="M163.496 164.229H160.631V167.059H163.496V164.229Z" fill="#2A4158"/>
<path d="M169.227 164.229H166.361V167.059H169.227V164.229Z" fill="#2A4158"/>
<path d="M120.529 167.059H117.664V169.889H120.529V167.059Z" fill="#2A4158"/>
<path d="M131.99 167.059H129.125V169.889H131.99V167.059Z" fill="#2A4158"/>
<path d="M143.445 167.059H140.58V169.889H143.445V167.059Z" fill="#2A4158"/>
<path d="M154.906 167.059H152.041V169.889H154.906V167.059Z" fill="#2A4158"/>
<path d="M166.361 167.059H163.496V169.889H166.361V167.059Z" fill="#2A4158"/>
<path d="M123.395 169.883H120.529V172.713H123.395V169.883Z" fill="#2A4158"/>
<path d="M129.125 169.883H126.26V172.713H129.125V169.883Z" fill="#2A4158"/>
<path d="M134.85 169.883H131.984V172.713H134.85V169.883Z" fill="#2A4158"/>
<path d="M140.58 169.883H137.715V172.713H140.58V169.883Z" fill="#2A4158"/>
<path d="M146.311 169.883H143.445V172.713H146.311V169.883Z" fill="#2A4158"/>
<path d="M152.041 169.883H149.176V172.713H152.041V169.883Z" fill="#2A4158"/>
<path d="M157.771 169.883H154.906V172.713H157.771V169.883Z" fill="#2A4158"/>
<path d="M163.496 169.883H160.631V172.713H163.496V169.883Z" fill="#2A4158"/>
<path d="M169.227 169.883H166.361V172.713H169.227V169.883Z" fill="#2A4158"/>
<path d="M126.26 172.713H123.395V175.543H126.26V172.713Z" fill="#2A4158"/>
<path d="M137.715 172.713H134.85V175.543H137.715V172.713Z" fill="#2A4158"/>
<path d="M149.176 172.713H146.311V175.543H149.176V172.713Z" fill="#2A4158"/>
<path d="M160.631 172.713H157.766V175.543H160.631V172.713Z" fill="#2A4158"/>
<path d="M123.395 175.537H120.529V178.367H123.395V175.537Z" fill="#2A4158"/>
<path d="M129.125 175.537H126.26V178.367H129.125V175.537Z" fill="#2A4158"/>
<path d="M134.85 175.537H131.984V178.367H134.85V175.537Z" fill="#2A4158"/>
<path d="M140.58 175.537H137.715V178.367H140.58V175.537Z" fill="#2A4158"/>
<path d="M146.311 175.537H143.445V178.367H146.311V175.537Z" fill="#2A4158"/>
<path d="M152.041 175.537H149.176V178.367H152.041V175.537Z" fill="#2A4158"/>
<path d="M157.771 175.537H154.906V178.367H157.771V175.537Z" fill="#2A4158"/>
<path d="M163.496 175.537H160.631V178.367H163.496V175.537Z" fill="#2A4158"/>
<path d="M169.227 175.537H166.361V178.367H169.227V175.537Z" fill="#2A4158"/>
<path d="M220.332 146.141H174.5V180.559H177.365V177.693H180.23V180.559H177.365V183.424H180.23V186.289H183.096V183.424H185.961V180.559H183.096V177.693H185.961V180.559H188.826V177.693H191.691V180.559H188.826V183.424H191.691V186.289H194.557V183.424H197.422V180.559H194.557V177.693H197.422V180.559H200.287V177.693H203.152V180.559H200.287V183.424H203.152V186.289H206.018V183.424H208.883V180.559H206.018V177.693H208.883V180.559H211.748V177.693H214.613V180.559H211.748V183.424H214.613V186.289H217.479V183.424H220.344V180.559H217.479V177.693H220.344V180.559H223.209V177.693H226.074V169.092H223.209V166.227H226.074V146.152H220.344L220.332 146.141ZM180.23 169.086H177.365V166.221H180.23V169.086ZM185.961 174.822H183.096V171.957H185.961V174.822ZM191.686 169.086H188.82V166.221H191.686V169.086ZM197.416 174.822H194.551V171.957H197.416V174.822ZM203.146 169.086H200.281V166.221H203.146V169.086ZM208.877 174.822H206.012V171.957H208.877V174.822ZM214.602 169.086H211.736V166.221H214.602V169.086ZM220.332 174.822H217.467V171.957H220.332V174.822Z" fill="#2A4158"/>
<path d="M226.063 180.559H223.197V183.424H226.063V180.559Z" fill="#2A4158"/>
<path d="M220.332 186.295H217.467V189.16H220.332V192.031H223.197V189.16H226.063V186.295H223.197V183.424H220.332V186.295Z" fill="#2A4158"/>
<path d="M180.23 189.16V186.295H177.365V183.424H174.5V186.295V189.16V192.031H177.365V189.16H180.23Z" fill="#2A4158"/>
<path d="M191.686 189.16V186.295H188.82V183.424H185.961V186.295H183.096V189.16H185.961V192.031H188.82V189.16H191.686Z" fill="#2A4158"/>
<path d="M203.146 189.16V186.295H200.281V183.424H197.416V186.295H194.551V189.16H197.416V192.031H200.281V189.16H203.146Z" fill="#2A4158"/>
<path d="M214.602 189.16V186.295H211.742V183.424H208.877V186.295H206.012V189.16H208.877V192.031H211.742V189.16H214.602Z" fill="#2A4158"/>
<path d="M183.096 189.16H180.23V192.025H183.096V189.16Z" fill="#2A4158"/>
<path d="M194.551 189.16H191.685V192.025H194.551V189.16Z" fill="#2A4158"/>
<path d="M206.012 189.16H203.146V192.025H206.012V189.16Z" fill="#2A4158"/>
<path d="M217.467 189.16H214.601V192.025H217.467V189.16Z" fill="#2A4158"/>
<path d="M180.231 192.031H177.365V194.897H180.231V192.031Z" fill="#2A4158"/>
<path d="M185.961 192.031H183.096V194.897H185.961V192.031Z" fill="#2A4158"/>
<path d="M191.686 192.031H188.82V194.897H191.686V192.031Z" fill="#2A4158"/>
<path d="M197.416 192.031H194.551V194.897H197.416V192.031Z" fill="#2A4158"/>
<path d="M203.146 192.031H200.281V194.897H203.146V192.031Z" fill="#2A4158"/>
<path d="M208.877 192.031H206.012V194.897H208.877V192.031Z" fill="#2A4158"/>
<path d="M214.607 192.031H211.742V194.897H214.607V192.031Z" fill="#2A4158"/>
<path d="M220.332 192.031H217.467V194.897H220.332V192.031Z" fill="#2A4158"/>
<path d="M226.063 192.031H223.197V194.897H226.063V192.031Z" fill="#2A4158"/>
<path d="M183.096 194.896H180.23V197.762H183.096V194.896Z" fill="#2A4158"/>
<path d="M194.551 194.896H191.685V197.762H194.551V194.896Z" fill="#2A4158"/>
<path d="M206.012 194.896H203.146V197.762H206.012V194.896Z" fill="#2A4158"/>
<path d="M217.467 194.896H214.601V197.762H217.467V194.896Z" fill="#2A4158"/>
<path d="M180.231 197.768H177.365V200.633H180.231V197.768Z" fill="#2A4158"/>
<path d="M185.961 197.768H183.096V200.633H185.961V197.768Z" fill="#2A4158"/>
<path d="M191.686 197.768H188.82V200.633H191.686V197.768Z" fill="#2A4158"/>
<path d="M197.416 197.768H194.551V200.633H197.416V197.768Z" fill="#2A4158"/>
<path d="M203.146 197.768H200.281V200.633H203.146V197.768Z" fill="#2A4158"/>
<path d="M208.877 197.768H206.012V200.633H208.877V197.768Z" fill="#2A4158"/>
<path d="M214.607 197.768H211.742V200.633H214.607V197.768Z" fill="#2A4158"/>
<path d="M220.332 197.768H217.467V200.633H220.332V197.768Z" fill="#2A4158"/>
<path d="M226.063 197.768H223.197V200.633H226.063V197.768Z" fill="#2A4158"/>
<path d="M337.977 203.416H335.176V206.199H337.977V203.416Z" fill="#0CC161"/>
<path d="M112.391 203.416H109.59V206.199H112.391V203.416Z" fill="#0CC161"/>
<path d="M335.176 110.75V102.313H332.375V96.6875H329.574V91.0625H326.773V88.25H323.973V85.4375H321.172V82.625H315.57V79.8125H309.969V77H287.574V136.062H290.375V133.25H293.176V136.062H290.375V138.875H293.176V141.688H295.977V138.875H298.777V136.062H295.977V133.25H298.777V136.062H301.578V133.25H304.379V136.062H301.578V138.875H304.379V141.688H307.18V138.875H309.98V136.062H307.18V133.25H309.98V136.062H312.781V133.25H315.582V136.062H312.781V138.875H315.582V141.688H318.383V138.875H321.184V136.062H318.383V133.25H321.184V136.062H323.984V133.25H326.785V136.062H323.984V138.875H326.785V141.688H329.586V138.875H332.387V136.062H329.586V133.25H332.387V136.062H335.188V133.25H337.988V130.438H335.188V127.625H337.988V124.813H335.188V122H337.988V119.188H335.188V116.375H337.988V110.75H335.188H335.176ZM293.188 130.438H290.387V127.625H293.188V130.438ZM293.188 124.813H290.387V122H293.188V124.813ZM293.188 119.188H290.387V116.375H293.188V119.188ZM298.783 130.438H295.982V127.625H298.783V130.438ZM298.783 124.813H295.982V122H298.783V124.813ZM298.783 113.563H295.982V110.75H298.783V113.563ZM304.385 130.438H301.584V127.625H304.385V130.438ZM304.385 124.813H301.584V122H304.385V124.813ZM304.385 119.188H301.584V116.375H304.385V119.188ZM309.98 130.438H307.18V127.625H309.98V130.438ZM309.98 124.813H307.18V122H309.98V124.813ZM309.98 113.563H307.18V110.75H309.98V113.563ZM315.582 130.438H312.781V127.625H315.582V130.438ZM315.582 124.813H312.781V122H315.582V124.813ZM315.582 119.188H312.781V116.375H315.582V119.188ZM321.178 130.438H318.377V127.625H321.178V130.438ZM321.178 124.813H318.377V122H321.178V124.813ZM321.178 113.563H318.377V110.75H321.178V113.563ZM326.779 130.438H323.979V127.625H326.779V130.438ZM326.779 124.813H323.979V122H326.779V124.813ZM326.779 119.188H323.979V116.375H326.779V119.188ZM332.375 130.438H329.574V127.625H332.375V130.438ZM332.375 124.813H329.574V122H332.375V124.813ZM332.375 113.563H329.574V110.75H332.375V113.563Z" fill="#2A4158"/>
<path d="M337.977 136.063H335.176V138.875H337.977V136.063Z" fill="#2A4158"/>
<path d="M290.387 138.875H287.586V141.687H290.387V138.875Z" fill="#2A4158"/>
<path d="M301.584 138.875H298.783V141.687H301.584V138.875Z" fill="#2A4158"/>
<path d="M312.781 138.875H309.98V141.687H312.781V138.875Z" fill="#2A4158"/>
<path d="M323.978 138.875H321.178V141.687H323.978V138.875Z" fill="#2A4158"/>
<path d="M335.176 138.875H332.375V141.687H335.176V138.875Z" fill="#2A4158"/>
<path d="M293.188 141.688H290.387V144.5H293.188V141.688Z" fill="#2A4158"/>
<path d="M298.783 141.688H295.982V144.5H298.783V141.688Z" fill="#2A4158"/>
<path d="M304.385 141.688H301.584V144.5H304.385V141.688Z" fill="#2A4158"/>
<path d="M309.98 141.688H307.18V144.5H309.98V141.688Z" fill="#2A4158"/>
<path d="M315.582 141.688H312.781V144.5H315.582V141.688Z" fill="#2A4158"/>
<path d="M321.184 141.688H318.383V144.5H321.184V141.688Z" fill="#2A4158"/>
<path d="M326.779 141.688H323.979V144.5H326.779V141.688Z" fill="#2A4158"/>
<path d="M332.381 141.688H329.58V144.5H332.381V141.688Z" fill="#2A4158"/>
<path d="M337.977 141.688H335.176V144.5H337.977V141.688Z" fill="#2A4158"/>
<path d="M290.387 144.5H287.586V147.312H290.387V144.5Z" fill="#2A4158"/>
<path d="M295.988 144.5H293.188V147.312H295.988V144.5Z" fill="#2A4158"/>
<path d="M301.584 144.5H298.783V147.312H301.584V144.5Z" fill="#2A4158"/>
<path d="M307.186 144.5H304.385V147.312H307.186V144.5Z" fill="#2A4158"/>
<path d="M312.781 144.5H309.98V147.312H312.781V144.5Z" fill="#2A4158"/>
<path d="M318.383 144.5H315.582V147.312H318.383V144.5Z" fill="#2A4158"/>
<path d="M323.978 144.5H321.178V147.312H323.978V144.5Z" fill="#2A4158"/>
<path d="M329.58 144.5H326.779V147.312H329.58V144.5Z" fill="#2A4158"/>
<path d="M335.176 144.5H332.375V147.312H335.176V144.5Z" fill="#2A4158"/>
<path d="M293.188 147.312H290.387V150.125H293.188V147.312Z" fill="#2A4158"/>
<path d="M298.783 147.312H295.982V150.125H298.783V147.312Z" fill="#2A4158"/>
<path d="M304.385 147.312H301.584V150.125H304.385V147.312Z" fill="#2A4158"/>
<path d="M309.98 147.312H307.18V150.125H309.98V147.312Z" fill="#2A4158"/>
<path d="M315.582 147.312H312.781V150.125H315.582V147.312Z" fill="#2A4158"/>
<path d="M321.184 147.312H318.383V150.125H321.184V147.312Z" fill="#2A4158"/>
<path d="M326.779 147.312H323.979V150.125H326.779V147.312Z" fill="#2A4158"/>
<path d="M332.381 147.312H329.58V150.125H332.381V147.312Z" fill="#2A4158"/>
<path d="M337.977 147.312H335.176V150.125H337.977V147.312Z" fill="#2A4158"/>
<path d="M295.988 150.125H293.188V152.938H295.988V150.125Z" fill="#2A4158"/>
<path d="M307.186 150.125H304.385V152.938H307.186V150.125Z" fill="#2A4158"/>
<path d="M318.383 150.125H315.582V152.938H318.383V150.125Z" fill="#2A4158"/>
<path d="M329.58 150.125H326.779V152.938H329.58V150.125Z" fill="#2A4158"/>
<path d="M293.188 152.937H290.387V155.75H293.188V152.937Z" fill="#2A4158"/>
<path d="M298.783 152.937H295.982V155.75H298.783V152.937Z" fill="#2A4158"/>
<path d="M304.385 152.937H301.584V155.75H304.385V152.937Z" fill="#2A4158"/>
<path d="M309.98 152.937H307.18V155.75H309.98V152.937Z" fill="#2A4158"/>
<path d="M315.582 152.937H312.781V155.75H315.582V152.937Z" fill="#2A4158"/>
<path d="M321.184 152.937H318.383V155.75H321.184V152.937Z" fill="#2A4158"/>
<path d="M326.779 152.937H323.979V155.75H326.779V152.937Z" fill="#2A4158"/>
<path d="M332.381 152.937H329.58V155.75H332.381V152.937Z" fill="#2A4158"/>
<path d="M337.977 152.937H335.176V155.75H337.977V152.937Z" fill="#2A4158"/>
<path d="M298.783 158.562H295.982V161.375H298.783V158.562Z" fill="#2A4158"/>
<path d="M309.98 158.562H307.18V161.375H309.98V158.562Z" fill="#2A4158"/>
<path d="M321.184 158.562H318.383V161.375H321.184V158.562Z" fill="#2A4158"/>
<path d="M332.381 158.562H329.58V161.375H332.381V158.562Z" fill="#2A4158"/>
<path d="M92.7969 79.8125L89.9961 79.8535V79.8125H84.3945V79.9297H84.2656V82.625H81.5938V85.2031H76.0625V85.4375H75.998V88.1328H73.1328V93.875H70.3965V93.9922H70.2031V96.6875H67.6016V96.9219H67.2734V102.195H64.9297V102.313H64.8008V108.641H62V136.062H64.8008V133.25H67.6016V136.062H64.8008V138.875H67.6016V141.688H70.4023V138.875H73.2031V136.062H70.4023V133.25H73.2031V136.062H76.0039V133.25H78.8047V136.062H76.0039V138.875H78.8047V141.688H81.6055V138.875H84.4063V136.062H81.6055V133.25H84.4063V136.062H87.207V133.25H90.0078V136.062H87.207V138.875H90.0078V141.688H92.8086V138.875H95.6094V136.062H92.8086V133.25H95.6094V136.062H98.4102V133.25H101.211V136.062H98.4102V138.875H101.211V141.688H104.012V138.875H106.812V136.062H104.012V133.25H106.812V136.062H109.613V133.25H112.414V130.438H109.613V127.625H112.414V124.813H109.613V122H112.414V119.188H109.613V116.375H112.414V77H92.8203V79.8125H92.7969ZM67.6016 130.438H64.8008V127.625H67.6016V130.438ZM67.6016 124.813H64.8008V122H67.6016V124.813ZM67.6016 119.188H64.8008V116.375H67.6016V119.188ZM73.1973 130.438H70.3965V127.625H73.1973V130.438ZM73.1973 124.813H70.3965V122H73.1973V124.813ZM73.1973 113.563H70.3965V110.75H73.1973V113.563ZM78.7988 130.438H75.998V127.625H78.7988V130.438ZM78.7988 124.813H75.998V122H78.7988V124.813ZM78.7988 119.188H75.998V116.375H78.7988V119.188ZM84.3945 130.438H81.5938V127.625H84.3945V130.438ZM84.3945 124.813H81.5938V122H84.3945V124.813ZM84.3945 113.563H81.5938V110.75H84.3945V113.563ZM89.9961 130.438H87.1953V127.625H89.9961V130.438ZM89.9961 124.813H87.1953V122H89.9961V124.813ZM89.9961 119.188H87.1953V116.375H89.9961V119.188ZM103.994 110.75H106.795V113.563H103.994V110.75ZM103.994 122H106.795V124.813H103.994V122ZM103.994 127.625H106.795V130.438H103.994V127.625ZM98.3926 116.375H101.193V119.188H98.3926V116.375ZM98.3926 122H101.193V124.813H98.3926V122ZM98.3926 127.625H101.193V130.438H98.3926V127.625ZM95.5918 130.438H92.791V127.625H95.5918V130.438ZM95.5918 124.813H92.791V122H95.5918V124.813ZM95.5918 113.563H92.791V110.75H95.5918V113.563Z" fill="#2A4158"/>
<path d="M112.391 136.063H109.59V138.875H112.391V136.063Z" fill="#2A4158"/>
<path d="M64.8008 138.875H62V141.687H64.8008V138.875Z" fill="#2A4158"/>
<path d="M75.998 138.875H73.1973V141.687H75.998V138.875Z" fill="#2A4158"/>
<path d="M87.1953 138.875H84.3945V141.687H87.1953V138.875Z" fill="#2A4158"/>
<path d="M98.3926 138.875H95.5918V141.687H98.3926V138.875Z" fill="#2A4158"/>
<path d="M109.59 138.875H106.789V141.687H109.59V138.875Z" fill="#2A4158"/>
<path d="M67.6016 141.688H64.8008V144.5H67.6016V141.688Z" fill="#2A4158"/>
<path d="M73.1973 141.688H70.3965V144.5H73.1973V141.688Z" fill="#2A4158"/>
<path d="M78.7988 141.688H75.998V144.5H78.7988V141.688Z" fill="#2A4158"/>
<path d="M84.3945 141.688H81.5938V144.5H84.3945V141.688Z" fill="#2A4158"/>
<path d="M89.9961 141.688H87.1953V144.5H89.9961V141.688Z" fill="#2A4158"/>
<path d="M95.5977 141.688H92.7969V144.5H95.5977V141.688Z" fill="#2A4158"/>
<path d="M101.193 141.688H98.3926V144.5H101.193V141.688Z" fill="#2A4158"/>
<path d="M106.795 141.688H103.994V144.5H106.795V141.688Z" fill="#2A4158"/>
<path d="M112.391 141.688H109.59V144.5H112.391V141.688Z" fill="#2A4158"/>
<path d="M64.8008 144.5H62V147.312H64.8008V144.5Z" fill="#2A4158"/>
<path d="M70.4025 144.5H67.6017V147.312H70.4025V144.5Z" fill="#2A4158"/>
<path d="M75.998 144.5H73.1973V147.312H75.998V144.5Z" fill="#2A4158"/>
<path d="M81.5996 144.5H78.7988V147.312H81.5996V144.5Z" fill="#2A4158"/>
<path d="M87.1953 144.5H84.3945V147.312H87.1953V144.5Z" fill="#2A4158"/>
<path d="M92.7969 144.5H89.9961V147.312H92.7969V144.5Z" fill="#2A4158"/>
<path d="M98.3926 144.5H95.5918V147.312H98.3926V144.5Z" fill="#2A4158"/>
<path d="M103.994 144.5H101.193V147.312H103.994V144.5Z" fill="#2A4158"/>
<path d="M109.59 144.5H106.789V147.312H109.59V144.5Z" fill="#2A4158"/>
<path d="M67.6016 147.312H64.8008V150.125H67.6016V147.312Z" fill="#2A4158"/>
<path d="M73.1973 147.312H70.3965V150.125H73.1973V147.312Z" fill="#2A4158"/>
<path d="M78.7988 147.312H75.998V150.125H78.7988V147.312Z" fill="#2A4158"/>
<path d="M84.3945 147.312H81.5938V150.125H84.3945V147.312Z" fill="#2A4158"/>
<path d="M89.9961 147.312H87.1953V150.125H89.9961V147.312Z" fill="#2A4158"/>
<path d="M95.5977 147.312H92.7969V150.125H95.5977V147.312Z" fill="#2A4158"/>
<path d="M101.193 147.312H98.3926V150.125H101.193V147.312Z" fill="#2A4158"/>
<path d="M106.795 147.312H103.994V150.125H106.795V147.312Z" fill="#2A4158"/>
<path d="M112.391 147.312H109.59V150.125H112.391V147.312Z" fill="#2A4158"/>
<path d="M70.4025 150.125H67.6017V152.938H70.4025V150.125Z" fill="#2A4158"/>
<path d="M81.5996 150.125H78.7988V152.938H81.5996V150.125Z" fill="#2A4158"/>
<path d="M92.7969 150.125H89.9961V152.938H92.7969V150.125Z" fill="#2A4158"/>
<path d="M103.994 150.125H101.193V152.938H103.994V150.125Z" fill="#2A4158"/>
<path d="M67.6016 152.937H64.8008V155.75H67.6016V152.937Z" fill="#2A4158"/>
<path d="M73.1973 152.937H70.3965V155.75H73.1973V152.937Z" fill="#2A4158"/>
<path d="M78.7988 152.937H75.998V155.75H78.7988V152.937Z" fill="#2A4158"/>
<path d="M84.3945 152.937H81.5938V155.75H84.3945V152.937Z" fill="#2A4158"/>
<path d="M89.9961 152.937H87.1953V155.75H89.9961V152.937Z" fill="#2A4158"/>
<path d="M95.5977 152.937H92.7969V155.75H95.5977V152.937Z" fill="#2A4158"/>
<path d="M101.193 152.937H98.3926V155.75H101.193V152.937Z" fill="#2A4158"/>
<path d="M106.795 152.937H103.994V155.75H106.795V152.937Z" fill="#2A4158"/>
<path d="M112.391 152.937H109.59V155.75H112.391V152.937Z" fill="#2A4158"/>
<path d="M73.1973 158.562H70.3965V161.375H73.1973V158.562Z" fill="#2A4158"/>
<path d="M84.3945 158.562H81.5938V161.375H84.3945V158.562Z" fill="#2A4158"/>
<path d="M95.5977 158.562H92.7969V161.375H95.5977V158.562Z" fill="#2A4158"/>
<path d="M106.795 158.562H103.994V161.375H106.795V158.562Z" fill="#2A4158"/>
<path d="M277.168 113.328H265.707V116.158H257.111V118.988H251.381V121.818H248.516V124.648H245.65V127.479H242.785V130.309H239.92V133.139H242.785V135.969H239.92V133.139H237.055V138.793H234.189V144.447H237.055V147.277H231.324V158.586H234.189V155.756H237.055V158.586H234.189V161.416H237.055V164.246H239.92V161.416H242.785V158.586H239.92V155.756H242.785V158.586H245.65V155.756H248.516V158.586H245.65V161.416H248.516V164.246H251.381V161.416H254.246V158.586H251.381V155.756H254.246V158.586H257.111V155.756H259.977V158.586H257.111V161.416H259.977V164.246H262.842V161.416H265.707V158.586H262.842V155.756H265.707V158.586H268.572V155.756H271.437V158.586H268.572V161.416H271.437V164.246H274.303V161.416H277.168V158.586H274.303V155.756H277.168V158.586H280.033V155.756H282.898V147.271H280.033V144.441H282.898V113.334H277.168V113.328ZM242.797 152.92H239.932V150.09H242.797V152.92ZM248.521 147.26H245.656V144.43H248.521V147.26ZM254.252 152.92H251.387V150.09H254.252V152.92ZM254.252 135.951H251.387V133.121H254.252V135.951ZM259.982 147.26H257.117V144.43H259.982V147.26ZM265.713 152.92H262.848V150.09H265.713V152.92ZM265.713 135.951H262.848V133.121H265.713V135.951ZM271.437 147.26H268.572V144.43H271.437V147.26ZM277.168 152.92H274.303V150.09H277.168V152.92ZM277.168 135.951H274.303V133.121H277.168V135.951Z" fill="#2A4158"/>
<path d="M282.898 158.574H280.033V161.404H282.898V158.574Z" fill="#2A4158"/>
<path d="M277.168 164.229H274.303V167.059H277.168V169.883H280.033V167.059H282.899V164.229H280.033V161.398H277.168V164.229Z" fill="#2A4158"/>
<path d="M237.066 167.059V164.229H234.201V161.398H231.336V164.229V167.059V169.883H234.201V167.059H237.066Z" fill="#2A4158"/>
<path d="M248.521 167.059V164.229H245.656V161.398H242.797V164.229H239.932V167.059H242.797V169.883H245.656V167.059H248.521Z" fill="#2A4158"/>
<path d="M259.982 167.059V164.229H257.117V161.398H254.252V164.229H251.387V167.059H254.252V169.883H257.117V167.059H259.982Z" fill="#2A4158"/>
<path d="M271.438 167.059V164.229H268.578V161.398H265.713V164.229H262.848V167.059H265.713V169.883H268.578V167.059H271.438Z" fill="#2A4158"/>
<path d="M239.932 167.059H237.066V169.889H239.932V167.059Z" fill="#2A4158"/>
<path d="M251.387 167.059H248.521V169.889H251.387V167.059Z" fill="#2A4158"/>
<path d="M262.848 167.059H259.982V169.889H262.848V167.059Z" fill="#2A4158"/>
<path d="M274.303 167.059H271.438V169.889H274.303V167.059Z" fill="#2A4158"/>
<path d="M237.066 169.883H234.201V172.713H237.066V169.883Z" fill="#2A4158"/>
<path d="M242.797 169.883H239.932V172.713H242.797V169.883Z" fill="#2A4158"/>
<path d="M248.521 169.883H245.656V172.713H248.521V169.883Z" fill="#2A4158"/>
<path d="M254.252 169.883H251.387V172.713H254.252V169.883Z" fill="#2A4158"/>
<path d="M259.982 169.883H257.117V172.713H259.982V169.883Z" fill="#2A4158"/>
<path d="M265.713 169.883H262.848V172.713H265.713V169.883Z" fill="#2A4158"/>
<path d="M271.443 169.883H268.578V172.713H271.443V169.883Z" fill="#2A4158"/>
<path d="M277.168 169.883H274.303V172.713H277.168V169.883Z" fill="#2A4158"/>
<path d="M282.898 169.883H280.033V172.713H282.898V169.883Z" fill="#2A4158"/>
<path d="M239.932 172.713H237.066V175.543H239.932V172.713Z" fill="#2A4158"/>
<path d="M251.387 172.713H248.521V175.543H251.387V172.713Z" fill="#2A4158"/>
<path d="M262.848 172.713H259.982V175.543H262.848V172.713Z" fill="#2A4158"/>
<path d="M274.303 172.713H271.438V175.543H274.303V172.713Z" fill="#2A4158"/>
<path d="M237.066 175.537H234.201V178.367H237.066V175.537Z" fill="#2A4158"/>
<path d="M242.797 175.537H239.932V178.367H242.797V175.537Z" fill="#2A4158"/>
<path d="M248.521 175.537H245.656V178.367H248.521V175.537Z" fill="#2A4158"/>
<path d="M254.252 175.537H251.387V178.367H254.252V175.537Z" fill="#2A4158"/>
<path d="M259.982 175.537H257.117V178.367H259.982V175.537Z" fill="#2A4158"/>
<path d="M265.713 175.537H262.848V178.367H265.713V175.537Z" fill="#2A4158"/>
<path d="M271.443 175.537H268.578V178.367H271.443V175.537Z" fill="#2A4158"/>
<path d="M277.168 175.537H274.303V178.367H277.168V175.537Z" fill="#2A4158"/>
<path d="M282.898 175.537H280.033V178.367H282.898V175.537Z" fill="#2A4158"/>
</svg>
